<svg width="1000" height="1000" viewBox="0 0 1000 1000" fill="none" xmlns="http://www.w3.org/2000/svg">
<path d="M571.536 456.799C571.536 423.096 549.21 400.651 522.052 387.037C504.344 391.035 483.541 393.368 464.119 393.534L468.998 380.967C473.402 380.824 476.758 380.539 480.352 380.324V295.995H515.388V374.874C544.759 365.877 557.04 347.811 557.04 326.818C557.04 299.923 537.38 287.07 515.292 287.07H457.121V478.554C457.121 498.809 468.879 503.07 480.328 503.284V403.698C493.466 403.222 507.581 401.294 515.364 399.413V503.284C543.378 503.26 571.512 485.551 571.512 456.799M545.663 379.896C564.419 386.061 608.476 406.887 608.476 449.968C608.476 493.049 569.846 517.779 524.004 517.779H390.524L390.667 506.759C414.873 506.759 422.061 503.45 422.061 477.816V315.655C422.061 287.117 411.208 285.332 390.643 285.332V275.074C394.499 274.979 442.983 275.05 480.399 275.074C479.638 254.961 468.998 253.509 454.765 253.509V244.132H540.855V254.319C526.979 254.319 516.221 254.961 515.459 275.074H524.028C543.402 275.074 590.934 281.976 591.029 322.582C591.101 351.072 572.535 369.185 545.711 379.92M454.741 548.221C468.974 548.221 479.614 546.769 480.375 526.704H515.411C516.173 546.793 526.931 547.436 540.808 547.436V557.623H454.717V548.221H454.741ZM679 396.129C679 293.33 598.622 210 499.512 210C400.402 210 320 293.33 320 396.129C320 498.928 400.378 582.281 499.512 582.281C598.646 582.281 679 498.928 679 396.129Z" fill="#005797"/>
<path d="M548.385 659.208C548.385 648.012 543.865 638.331 536.631 633.172C531.472 629.502 523.6 627.494 515.143 627.494C511.127 627.494 509.186 627.64 505.609 627.92V690.575C505.609 692.743 506.087 693.394 507.75 693.647C509.718 694.019 512.138 694.113 514.624 694.113C523.959 694.113 531.605 691.719 537.469 686.573C544.583 680.39 548.385 670.736 548.385 659.194M558.677 658.49C558.677 673.223 553.571 685.27 543.652 693.394C536.126 699.524 526.605 702.37 512.709 702.37C509.864 702.37 504.651 702.131 499.958 702.131C495.264 702.131 491.447 702.237 487.019 702.317V699.87C496.048 699.87 496.048 697.969 496.048 671.242V648.676C496.048 623.372 496.048 621.883 487.418 621.883V619.569C490.929 619.569 496.58 619.436 500.543 619.436C504.997 619.436 508.348 619.157 514.93 619.157C527.762 619.157 535.208 621.165 542.216 625.34C552.481 631.43 558.677 643.663 558.677 658.503M471.768 648.889V703.115H469.919C451.184 680.337 439.708 666.468 432.435 657.745C427.608 651.868 423.912 647.227 418.646 640.219C418.446 644.302 418.473 648.504 418.473 671.069C418.473 697.955 418.473 699.91 427.249 699.91V702.33C422.316 702.224 417.808 702.117 413.566 702.117C408.859 702.117 405.615 702.224 401.293 702.33V699.937C410.162 699.937 410.162 697.955 410.162 671.069V618.824H412.011C430.879 642.094 442.501 656.322 449.814 665.178C454.654 670.989 457.806 675.005 463.284 682.331C463.484 678.156 463.457 673.715 463.457 648.902C463.457 624.09 463.457 621.63 454.428 621.63V619.223C458.564 619.33 462.978 619.436 467.1 619.436C471.515 619.436 475.517 619.33 479.56 619.223V621.63C471.781 621.71 471.781 623.611 471.781 648.902M895.612 670.457H918.031L917.925 670.071C908.391 642.719 907.593 640.605 907.181 638.664C906.582 640.565 905.771 642.693 895.705 670.071L895.599 670.457H895.612ZM920.797 678.169H892.9C885.214 698.208 884.682 699.844 893.644 699.844V702.317C889.988 702.21 885.4 702.104 880.347 702.104C875.294 702.104 872.395 702.21 870.002 702.317C866.266 702.21 862.33 702.104 857.197 702.104C851.772 702.104 847.676 702.21 843.408 702.317V699.844C852.37 699.844 852.37 698.168 852.37 671.295V648.663C852.37 623.359 852.37 621.697 843.754 621.697V619.21C847.756 619.316 852.211 619.423 856.904 619.423C861.971 619.423 867.223 619.316 870.241 619.21V621.697C861.971 621.697 861.944 623.345 861.944 648.636V671.188C861.944 696.785 862.117 699.83 869.763 699.83C875.042 699.83 876.358 696.838 886.264 671.188L906.768 618H908.75L928.496 671.188C938.575 698.181 939.36 699.857 945.25 699.857V702.33C943.163 702.224 939.413 702.117 934.041 702.117C928.669 702.117 923.177 702.224 920.012 702.33V699.857C928.802 699.857 928.07 698.261 920.784 678.183M835.563 680.722C835.563 693.368 826.733 703.221 810.79 703.221C804.301 703.221 797.48 701.426 793.876 699.617C794.328 694.791 794.594 687.836 794.687 680.696H797.014C797.161 686.254 798.597 689.844 801.03 692.012C803.37 694.126 806.788 694.99 810.817 694.99C819.619 694.99 825.603 689.924 825.603 682.132C825.603 677.199 823.835 673.289 819.34 669.593C816.388 667.173 813.104 664.846 808.742 661.894C800.206 656.043 795.419 649.421 795.419 640.166C795.419 628.026 804.833 618.612 818.728 618.612C823.582 618.612 828.861 619.542 832.611 620.859C832.212 626.989 832.052 633.425 831.986 639.049H829.672C829.792 633.996 828.848 631.324 826.56 629.382C824.792 627.813 821.76 626.843 818.33 626.843C810.883 626.843 805.205 631.523 805.205 639.142C805.205 643.371 807.133 647.174 810.604 650.325C813.277 652.639 816.508 655.125 821.441 658.476C829.379 663.902 835.549 670.164 835.549 680.749M742.643 671.215V648.65C742.643 623.345 742.643 621.683 735.103 621.683V619.197C739.77 619.277 746.392 619.41 755.235 619.41C764.782 619.41 774.901 619.303 781.842 619.197C781.417 624.994 781.111 631.231 781.058 637.533H778.811C778.465 628.864 776.75 627.241 768.333 627.241H752.23V655.737H764.051C773.133 655.737 775.659 655.551 776.324 650.299H778.491C778.279 653.091 778.093 656.309 778.093 659.407C778.093 663.037 778.279 666.534 778.491 669.952H776.351C775.739 663.981 773.332 663.649 764.33 663.649H752.23V689.485C752.23 693.634 752.429 693.873 756.339 693.9C761.338 693.926 766.112 693.966 771.723 693.9C777.428 693.793 780.273 693.062 781.151 684.499H783.385C783.106 689.538 782.72 696.227 782.72 702.304C775.526 702.197 765.367 702.091 755.94 702.091C746.512 702.091 739.385 702.197 734.585 702.304V699.83C742.629 699.83 742.629 698.155 742.629 671.202M637.463 660.152C637.463 641.137 623.953 627.002 606.693 627.002C589.434 627.002 575.844 641.137 575.844 660.843C575.844 680.549 589.434 694.857 606.48 694.857C623.527 694.857 637.449 681.387 637.449 660.165M648.007 659.527C648.007 684.552 630.508 703.447 605.935 703.447C583.317 703.447 565.18 685.576 565.18 661.282C565.18 636.988 583.583 618.399 607.544 618.399C631.506 618.399 648.007 635.406 648.007 659.54M384.419 648.636V671.188C384.419 698.168 384.419 699.857 393.581 699.857V702.33C389.844 702.224 384.805 702.117 379.659 702.117C374.234 702.117 370.138 702.224 365.896 702.33V699.857C374.845 699.857 374.845 698.181 374.845 671.308V648.676C374.845 623.372 374.845 621.71 366.229 621.71V619.223C370.231 619.33 374.686 619.436 379.406 619.436C384.472 619.436 389.711 619.33 392.743 619.223V621.71C384.459 621.71 384.432 623.359 384.432 648.65M271.088 671.215V648.65C271.088 623.345 271.088 621.683 262.472 621.683V619.197C266.182 619.303 270.756 619.41 275.795 619.41C280.835 619.41 284.93 619.303 288.88 619.197V621.683C280.835 621.683 280.649 623.372 280.649 647.533V657.147L297.124 637.321C308.413 623.678 309.051 621.683 301.778 621.683V619.197C306.871 619.303 310.408 619.41 314.676 619.41C318.944 619.41 323.319 619.303 326.231 619.197V621.683C320.234 621.683 319.303 623.598 307.256 637.627L289.491 658.782L310.793 684.033C322.641 698.168 324.822 699.844 330.26 699.844V702.317C327.242 702.21 322.96 702.104 317.761 702.104C312.562 702.104 308.559 702.21 303.334 702.317V699.844C311.977 699.844 309.769 697.53 299.344 684.605L280.848 662.013L280.635 672.491C280.635 698.195 280.662 699.83 289.704 699.83V702.304C285.063 702.197 281.393 702.091 276.314 702.091C271.234 702.091 266.088 702.197 262.113 702.304V699.83C271.062 699.83 271.062 698.155 271.062 671.202M246.116 648.889V703.115H244.255C225.519 680.337 214.044 666.468 206.783 657.745C201.957 651.868 198.247 647.227 192.994 640.219C192.795 644.302 192.822 648.504 192.822 671.069C192.822 697.955 192.822 699.91 201.598 699.91V702.33C196.664 702.224 192.157 702.117 187.902 702.117C183.208 702.117 181.758 702.224 177.437 702.33C175.336 702.224 173.395 702.117 168.022 702.117C162.65 702.117 157.159 702.224 153.994 702.33V699.857C162.797 699.857 162.052 698.261 154.765 678.183H126.868C119.182 698.221 118.65 699.857 127.599 699.857V702.33C123.943 702.224 119.355 702.117 114.302 702.117C109.249 702.117 105.247 702.224 102.853 702.33V699.857C108.904 699.857 109.781 698.235 120.259 671.188L140.75 618H142.718L162.464 671.188C171.945 696.546 173.222 699.564 178.221 699.83C184.511 700.163 184.498 695.03 184.498 671.055V618.811H186.359C205.214 642.081 216.849 656.309 224.136 665.165C228.976 670.976 232.141 674.991 237.606 682.318C237.819 678.143 237.792 673.701 237.792 648.889C237.792 624.077 237.792 621.617 228.764 621.617V619.21C232.899 619.316 237.3 619.423 241.422 619.423C245.837 619.423 249.853 619.316 253.882 619.21V621.617C246.103 621.697 246.103 623.598 246.103 648.889M129.607 670.457H152.026L151.92 670.071C142.386 642.719 141.588 640.605 141.176 638.664C140.564 640.565 139.753 642.693 129.714 670.071L129.607 670.457ZM95.8459 678.874C95.8459 670.537 90.0484 666.189 85.2215 664.766C82.6951 664.021 79.4373 663.543 75.9003 663.543C74.77 663.543 72.8686 663.582 71.8447 663.675V689.605C71.8447 692.783 71.9909 693.182 73.2409 693.674C74.5839 694.166 76.8311 694.245 78.4666 694.245C81.7643 694.245 85.554 693.248 87.5485 692.264C92.3488 690.137 95.8725 685.868 95.8725 678.861M92.4286 641.097C92.4286 631.696 86.3119 626.989 77.4826 626.989C74.7301 626.989 72.9483 627.202 71.8447 627.308V655.804C72.6425 655.844 73.8259 655.91 74.9296 655.91C76.7513 655.91 79.7032 655.75 82.0967 654.979C86.9236 653.503 92.4286 649.488 92.4286 641.097ZM105.699 679.22C105.699 687.052 102.348 693.208 97.4682 696.865C92.3089 700.695 85.9795 702.436 76.9109 702.436C73.0813 702.436 68.8927 702.117 65.2759 702.117C62.7362 702.117 58.654 702.224 54 702.304V699.857C62.6431 699.857 62.6431 698.181 62.6431 671.228V648.663C62.6431 623.359 62.6431 621.697 54.9308 621.697V619.463C58.1221 619.489 63.1085 619.423 66.2732 619.423C68.9459 619.423 72.8021 619.183 77.1369 619.183C81.4718 619.183 85.6338 619.702 88.5724 620.593C95.7129 622.667 102.202 628.93 102.202 640.033C102.202 650.179 94.822 657.732 87.5086 658.982C97.6676 660.365 105.672 668.356 105.672 679.22M718.389 648.889V703.115H716.527C697.778 680.337 686.316 666.468 679.056 657.745C674.229 651.868 670.506 647.227 665.254 640.219C665.054 644.302 665.081 648.504 665.081 671.069C665.081 697.955 665.081 699.91 673.857 699.91V702.33C668.91 702.224 664.416 702.117 660.174 702.117C655.467 702.117 652.222 702.224 647.914 702.33V699.937C656.783 699.937 656.783 697.955 656.783 671.069V618.824H658.632C677.5 642.094 689.122 656.322 696.435 665.178C701.262 670.989 704.44 675.005 709.892 682.331C710.105 678.156 710.078 673.715 710.078 648.902C710.078 624.09 710.078 621.63 701.049 621.63V619.223C705.185 619.33 709.573 619.436 713.721 619.436C718.109 619.436 722.125 619.33 726.168 619.223V621.63C718.402 621.71 718.402 623.611 718.402 648.902" fill="#005797"/>
<path d="M349.594 746.929C348.65 745.878 347.44 744.894 345.991 744.043C348.903 743.591 351.11 742.474 352.626 740.839C354.075 739.137 354.833 736.969 354.833 734.35C354.833 732.249 354.328 730.48 353.384 728.845C352.373 727.276 351.11 726.159 349.461 725.507C347.812 724.922 345.233 724.59 341.629 724.59H327.415V759.388H334.17V744.841H335.566C337.082 744.841 338.225 744.974 338.983 745.24C339.675 745.506 340.379 746.025 341.004 746.676C341.643 747.394 342.839 749.096 344.541 751.782L349.474 759.388H357.559L353.45 752.58C351.868 749.894 350.538 747.993 349.594 746.942V746.929ZM339.169 739.27H334.183V730.494H339.488C342.201 730.494 343.85 730.56 344.422 730.627C345.499 730.826 346.376 731.212 346.948 731.996C347.586 732.714 347.892 733.632 347.892 734.815C347.892 735.866 347.639 736.717 347.201 737.435C346.695 738.086 346.057 738.618 345.299 738.871C344.475 739.137 342.454 739.27 339.169 739.27Z" fill="#005797"/>
<path d="M296.326 730.48H306.312V759.388H313.067V730.48H323V724.59H296.326V730.48Z" fill="#005797"/>
<path d="M370.883 724.59L357.798 759.388H365.005L367.785 751.463H381.175L384.087 759.388H391.48L378.023 724.59H370.883ZM369.872 745.626L374.353 732.714L378.967 745.626H369.872Z" fill="#005797"/>
<path d="M476.475 744.043H493.349V738.219H476.475V730.48H494.612V724.59H469.707V759.388H495.237V753.484H476.475V744.043Z" fill="#005797"/>
<path d="M402.038 724.855H395.283V759.388H418.845V753.484H402.038V724.855Z" fill="#005797"/>
<path d="M458.085 746.929C457.141 745.878 455.931 744.894 454.482 744.043C457.394 743.591 459.667 742.474 461.117 740.839C462.566 739.137 463.324 736.969 463.324 734.35C463.324 732.249 462.819 730.48 461.875 728.845C460.864 727.276 459.601 726.159 457.952 725.507C456.303 724.922 453.724 724.59 450.12 724.59H435.905V759.388H442.66V744.841H444.057C445.572 744.841 446.716 744.974 447.474 745.24C448.165 745.506 448.87 746.025 449.495 746.676C450.133 747.394 451.33 749.096 453.032 751.782L457.965 759.388H466.05L461.941 752.58C460.359 749.894 459.029 747.993 458.085 746.942V746.929ZM447.66 739.27H442.674V730.494H447.979C450.692 730.494 452.341 730.56 452.912 730.627C453.99 730.826 454.867 731.212 455.439 731.996C456.077 732.714 456.383 733.632 456.383 734.815C456.383 735.866 456.13 736.717 455.692 737.435C455.186 738.086 454.548 738.618 453.79 738.871C452.966 739.137 450.944 739.27 447.66 739.27Z" fill="#005797"/>
<path d="M75.7408 740.906C77.1902 740.188 78.3337 739.204 79.2113 737.821C80.0358 736.451 80.4746 734.936 80.4746 733.366C80.4746 731.797 80.089 730.481 79.3975 729.298C78.7061 728.048 77.8816 727.064 76.8711 726.346C75.794 725.628 74.6637 725.162 73.334 724.91C72.0708 724.71 70.0497 724.577 67.3902 724.577H54.0001V759.376H65.4356C69.7305 759.309 72.4431 759.243 73.5867 759.11C75.3552 758.91 76.8711 758.392 78.1343 757.474C79.331 756.623 80.3416 755.373 81.0464 753.937C81.7378 752.435 82.1234 750.852 82.1234 749.283C82.1234 747.249 81.5517 745.547 80.4746 744.044C79.331 742.542 77.762 741.491 75.7408 740.893V740.906ZM60.7683 730.348H64.6909C67.8556 730.348 69.8103 730.415 70.4353 730.481C71.5788 730.614 72.4564 731.066 73.0282 731.731C73.6 732.383 73.8526 733.234 73.8526 734.35C73.8526 735.467 73.5335 736.385 72.9085 737.037C72.2171 737.755 71.3262 738.153 70.1295 738.286C69.4912 738.419 67.8556 738.419 65.1962 738.419H60.7683V730.361V730.348ZM74.1585 751.916C73.5202 752.634 72.7091 753.099 71.6985 753.285C71.0071 753.418 69.4912 753.485 67.0179 753.485H60.7683V744.244H66.26C69.2917 744.244 71.3129 744.377 72.257 744.696C73.1479 745.028 73.8393 745.547 74.3446 746.265C74.8499 747.049 75.1026 747.9 75.1026 748.951C75.1026 750.201 74.7834 751.185 74.1585 751.903V751.916Z" fill="#005797"/>
<path d="M285.276 747.846L271.554 724.59H264.985V759.388H271.248V736.703L284.771 759.388H291.592V724.59H285.276V747.846Z" fill="#005797"/>
<path d="M97.4815 724.59L84.3972 759.388H91.6042L94.3833 751.463H107.773L110.685 759.388H118.079L104.622 724.59H97.4815ZM96.4709 745.626L100.952 732.714L105.633 745.626H96.4709Z" fill="#005797"/>
<path d="M240.412 744.043H257.286V738.219H240.412V730.48H258.549V724.59H233.644V759.388H259.174V753.484H240.412V744.043Z" fill="#005797"/>
<path d="M222.9 740.187C221.317 739.336 218.857 738.485 215.573 737.7C212.289 736.849 210.201 736.065 209.376 735.347C208.685 734.762 208.366 734.031 208.366 733.246C208.366 732.329 208.685 731.61 209.443 731.079C210.52 730.228 212.102 729.829 214.057 729.829C216.012 729.829 217.408 730.227 218.352 731.012C219.296 731.797 219.934 733.047 220.187 734.882L227.008 734.549C226.875 731.344 225.745 728.778 223.591 726.877C221.503 724.975 218.352 723.991 214.11 723.991C211.517 723.991 209.31 724.39 207.475 725.175C205.706 726.026 204.31 727.209 203.3 728.712C202.356 730.281 201.85 731.916 201.85 733.698C201.85 736.451 202.927 738.804 204.949 740.706C206.398 742.075 208.991 743.192 212.594 744.11C215.44 744.894 217.208 745.36 218.033 745.679C219.176 746.078 219.988 746.596 220.44 747.181C220.945 747.7 221.198 748.431 221.198 749.282C221.198 750.532 220.626 751.636 219.496 752.62C218.418 753.604 216.783 754.056 214.562 754.056C212.541 754.056 210.892 753.537 209.696 752.42C208.432 751.37 207.674 749.668 207.236 747.381L200.667 748.032C201.106 751.968 202.435 754.907 204.709 756.941C206.983 758.976 210.267 759.96 214.509 759.96C217.421 759.96 219.881 759.561 221.836 758.71C223.79 757.859 225.253 756.542 226.317 754.84C227.394 753.072 227.966 751.237 227.966 749.203C227.966 747.035 227.527 745.2 226.636 743.697C225.692 742.195 224.482 741.011 222.913 740.16L222.9 740.187Z" fill="#005797"/>
<path d="M142.093 747.846L128.317 724.59H121.749V759.388H128.065V736.703L141.588 759.388H148.343V724.59H142.093V747.846Z" fill="#005797"/>
<path d="M185.189 724.59H176.081L162.371 740.054V724.59H155.616V759.388H162.371V748.897L167.876 743.073L177.091 759.388H185.881L172.544 738.153L185.189 724.59Z" fill="#005797"/>
<path d="M759.104 728.46C757.708 726.957 756.006 725.84 754.051 725.255C752.602 724.803 750.448 724.604 747.669 724.604H735.289V759.402H748.054C750.514 759.402 752.536 759.136 754.051 758.684C756.006 758.032 757.588 757.048 758.785 755.865C760.368 754.296 761.564 752.261 762.389 749.775C763.08 747.674 763.399 745.187 763.399 742.368C763.399 739.097 763.014 736.345 762.322 734.111C761.564 731.877 760.487 729.989 759.104 728.473V728.46ZM755.7 748.379C755.261 749.948 754.69 751.065 753.932 751.716C753.24 752.434 752.283 752.9 751.219 753.152C750.395 753.418 749.012 753.485 747.11 753.485H742.058V730.481H745.089C747.868 730.481 749.703 730.547 750.647 730.813C751.911 731.079 752.988 731.664 753.812 732.449C754.637 733.233 755.262 734.35 755.714 735.786C756.219 737.222 756.405 739.323 756.405 742.009C756.405 744.695 756.219 746.796 755.714 748.365L755.7 748.379Z" fill="#005797"/>
<path d="M784.01 723.991C781.297 723.991 778.89 724.443 776.803 725.361C775.22 726.012 773.771 727.063 772.441 728.512C771.112 729.882 770.101 731.531 769.343 733.299C768.266 735.653 767.761 738.671 767.761 742.208C767.761 747.713 769.277 752.101 772.189 755.253C775.154 758.404 779.143 759.973 784.129 759.973C789.116 759.973 792.972 758.404 795.884 755.186C798.849 752.035 800.312 747.647 800.312 742.009C800.312 736.371 798.863 731.916 795.884 728.778C792.919 725.574 788.93 723.991 784.01 723.991ZM790.698 750.931C788.996 752.966 786.776 753.949 784.063 753.949C781.35 753.949 779.13 752.966 777.361 750.931C775.659 748.897 774.768 745.892 774.768 741.956C774.768 738.02 775.593 734.948 777.295 732.98C778.997 731.012 781.271 730.028 784.05 730.028C786.829 730.028 789.103 731.012 790.805 732.914C792.453 734.882 793.264 737.9 793.264 741.889C793.264 745.878 792.44 748.897 790.672 750.931H790.698Z" fill="#005797"/>
<path d="M846.24 744.043H863.048V738.219H846.24V730.48H864.311V724.59H839.485V759.388H864.949V753.484H846.24V744.043Z" fill="#005797"/>
<path d="M826.029 747.846L812.253 724.59H805.671V759.388H812V736.703L825.523 759.388H832.278V724.59H826.029V747.846Z" fill="#005797"/>
<path d="M931.794 724.59H924.653L911.569 759.388H918.776L921.555 751.463H934.945L937.857 759.388H945.25L931.794 724.59ZM923.642 745.626L928.124 732.714L932.804 745.626H923.642Z" fill="#005797"/>
<path d="M519.89 725.108C518.627 724.776 515.967 724.59 511.858 724.59H500.995V759.388H507.75V746.277H512.178C515.209 746.277 517.616 746.078 519.185 745.759C520.382 745.493 521.525 744.974 522.722 744.123C523.866 743.272 524.81 742.155 525.568 740.719C526.326 739.217 526.711 737.448 526.711 735.281C526.711 732.528 526.02 730.294 524.757 728.526C523.427 726.757 521.845 725.64 519.89 725.122V725.108ZM518.932 738.086C518.427 738.871 517.736 739.456 516.778 739.788C515.887 740.187 514.119 740.307 511.473 740.307H507.75V730.48H511.034C513.441 730.48 515.076 730.547 515.901 730.68C516.978 730.946 517.922 731.398 518.613 732.249C519.305 733.1 519.69 734.084 519.69 735.4C519.69 736.384 519.438 737.302 518.932 738.086Z" fill="#005797"/>
<path d="M908.537 724.59H901.782V759.388H908.537V724.59Z" fill="#005797"/>
<path d="M891.237 740.187C889.655 739.336 887.195 738.485 883.911 737.7C880.626 736.849 878.539 736.065 877.714 735.347C877.023 734.762 876.704 734.031 876.704 733.246C876.704 732.329 877.089 731.61 877.781 731.079C878.858 730.228 880.44 729.829 882.395 729.829C884.35 729.829 885.746 730.227 886.69 731.012C887.634 731.797 888.272 733.047 888.525 734.882L895.346 734.549C895.213 731.344 894.083 728.778 891.995 726.877C889.841 724.975 886.69 723.991 882.448 723.991C879.855 723.991 877.714 724.39 875.879 725.175C874.044 726.026 872.661 727.209 871.651 728.712C870.707 730.281 870.202 731.916 870.202 733.698C870.202 736.451 871.279 738.804 873.3 740.706C874.749 742.075 877.342 743.192 880.946 744.11C883.791 744.894 885.626 745.36 886.384 745.679C887.528 746.078 888.339 746.596 888.844 747.181C889.283 747.7 889.535 748.431 889.535 749.282C889.535 750.532 888.964 751.636 887.833 752.62C886.756 753.604 885.121 754.056 882.9 754.056C880.879 754.056 879.23 753.537 878.033 752.42C876.77 751.37 876.012 749.668 875.627 747.381L868.991 748.032C869.43 751.968 870.826 754.907 873.1 756.941C875.374 758.976 878.592 759.96 882.834 759.96C885.746 759.96 888.206 759.561 890.16 758.71C892.115 757.859 893.631 756.542 894.708 754.84C895.719 753.072 896.29 751.237 896.29 749.203C896.29 747.035 895.852 745.2 894.961 743.697C894.07 742.195 892.807 741.011 891.237 740.16V740.187Z" fill="#005797"/>
<path d="M606.893 724.855H600.124V759.388H623.7V753.484H606.893V724.855Z" fill="#005797"/>
<path d="M587.878 740.906C589.327 740.188 590.471 739.204 591.295 737.821C592.186 736.451 592.558 734.936 592.558 733.366C592.558 731.797 592.239 730.481 591.548 729.298C590.856 728.048 590.032 727.064 588.955 726.346C587.944 725.628 586.748 725.162 585.484 724.91C584.155 724.71 582.2 724.577 579.541 724.577H566.084V759.376H577.519C581.881 759.309 584.593 759.243 585.737 759.11C587.506 758.91 589.021 758.392 590.218 757.474C591.481 756.623 592.426 755.373 593.13 753.937C593.888 752.435 594.207 750.852 594.207 749.283C594.207 747.249 593.702 745.547 592.558 744.044C591.481 742.542 589.899 741.491 587.878 740.893V740.906ZM572.892 730.348H576.748C579.966 730.348 581.868 730.415 582.559 730.481C583.703 730.614 584.514 731.066 585.085 731.731C585.657 732.383 585.976 733.234 585.976 734.35C585.976 735.467 585.657 736.385 584.966 737.037C584.328 737.755 583.383 738.153 582.253 738.286C581.615 738.419 579.979 738.419 577.32 738.419H572.892V730.361V730.348ZM586.229 751.916C585.591 752.634 584.78 753.099 583.769 753.285C583.131 753.418 581.615 753.485 579.155 753.485H572.905V744.244H578.344C581.442 744.244 583.463 744.377 584.341 744.696C585.285 745.028 585.99 745.547 586.495 746.265C587 747.049 587.253 747.9 587.253 748.951C587.253 750.201 586.867 751.185 586.242 751.903L586.229 751.916Z" fill="#005797"/>
<path d="M552.175 743.858C552.175 746.61 552.055 748.578 551.856 749.762C551.67 750.945 551.098 751.929 550.087 752.78C549.143 753.564 547.681 753.963 545.793 753.963C543.904 753.963 542.375 753.564 541.311 752.713C540.234 751.796 539.543 750.679 539.224 749.243C539.038 748.392 538.971 746.424 538.971 743.472V724.604H532.216V743.153C532.216 747.089 532.402 750.028 532.855 751.995C533.174 753.312 533.799 754.615 534.756 755.865C535.767 757.048 537.03 758.099 538.679 758.817C540.381 759.601 542.787 760 546.005 760C548.665 760 550.806 759.668 552.454 758.95C554.103 758.232 555.42 757.314 556.377 756.131C557.388 754.881 558.079 753.445 558.398 751.743C558.784 750.041 558.97 747.089 558.97 742.9V724.617H552.215V743.884L552.175 743.858Z" fill="#005797"/>
<path d="M635.136 724.59H628.381V759.388H635.136V724.59Z" fill="#005797"/>
<path d="M695.039 724.59H688.218V759.388H695.039V724.59Z" fill="#005797"/>
<path d="M721.833 747.846L708.11 724.59H701.541V759.388H707.804V736.703L721.327 759.388H728.149V724.59H721.833V747.846Z" fill="#005797"/>
<path d="M671.211 724.59H662.115L648.473 740.054V724.59H641.638V759.388H648.473V748.897L653.964 743.073L663.126 759.388H671.915L658.578 738.153L671.211 724.59Z" fill="#005797"/>
</svg>
