<svg width="1000" height="1000" viewBox="0 0 1000 1000" fill="none" xmlns="http://www.w3.org/2000/svg">
<path fill-rule="evenodd" clip-rule="evenodd" d="M500.491 47.73C676.193 108.946 827.916 226.088 954.357 377.812C950.371 577.468 871.842 776.439 780.67 911.558C596.334 964.804 405.999 968.789 219.648 911.558C121.813 756.491 49.2827 564.827 46.6259 377.812C180.394 220.752 303.514 124.245 500.491 47.73Z" fill="#121517"/>
<path fill-rule="evenodd" clip-rule="evenodd" d="M500.491 63.7153C670.857 122.939 816.603 236.073 939.722 382.484C935.737 575.476 859.864 767.804 772.014 898.252C593.655 949.506 409.984 953.491 229.633 898.252C133.79 749.185 64.5813 563.499 61.9245 383.148C191.022 231.402 309.491 137.574 500.491 63.7153Z" fill="#F5A00E"/>
<path fill-rule="evenodd" clip-rule="evenodd" d="M500.491 75.0283C666.872 132.924 809.275 242.737 928.409 385.826C924.424 573.505 850.543 761.826 764.685 888.953C590.999 939.542 411.312 942.863 235.611 888.953C143.111 743.207 75.2306 562.192 72.5517 385.826C198.992 238.088 314.141 146.916 500.469 75.0283H500.491Z" fill="#121517"/>
<path fill-rule="evenodd" clip-rule="evenodd" d="M500.491 86.3418C662.2 142.909 801.304 249.401 917.095 389.147C913.11 572.155 841.222 755.184 758.043 878.968C589.006 928.207 413.969 931.55 242.939 878.968C152.432 736.543 86.544 560.199 83.8872 389.147C207.006 244.73 319.476 156.215 500.491 86.3418Z" fill="#F5A00E"/>
<path fill-rule="evenodd" clip-rule="evenodd" d="M500.491 98.3198C657.551 152.894 792.648 257.372 905.118 392.469C901.133 570.163 831.902 747.856 750.715 868.297C586.327 915.543 416.626 919.55 250.245 868.297C162.395 729.879 98.4995 558.827 95.8427 391.805C214.977 252.058 324.768 166.2 500.469 98.3198H500.491Z" fill="#F5A00E"/>
<path fill-rule="evenodd" clip-rule="evenodd" d="M368.051 225.424C373.365 234.745 380.029 239.394 376.708 254.051C373.387 270.014 351.424 281.327 339.447 304.618C332.783 317.924 325.476 331.894 325.476 357.864C325.476 357.864 324.148 355.208 310.178 354.543C307.521 369.178 312.835 389.148 325.476 400.461C321.491 405.111 318.812 411.111 311.506 419.103C314.163 429.088 324.148 434.402 332.141 443.058C328.82 449.058 316.842 455.036 313.499 466.349C328.133 463.693 356.096 480.319 360.081 504.275C362.073 518.245 364.73 534.894 364.73 552.185C364.73 565.491 366.723 594.782 355.409 600.76C368.715 612.737 367.387 626.708 370.708 640.7C374.029 654.67 380.029 665.319 387.335 669.327C399.313 675.991 417.954 671.983 422.604 656.021C423.932 652.7 421.275 645.371 418.618 642.051C412.619 636.051 403.984 636.737 400.641 648.05C393.977 652.7 389.328 648.05 389.328 634.744C389.328 621.438 392.649 604.125 397.32 598.812C383.35 590.155 391.32 549.573 393.999 530.267C397.32 510.961 402.656 493.67 409.298 479.677C421.275 457.715 433.917 448.394 450.566 433.76C435.268 425.103 423.954 401.812 421.275 385.185C414.611 397.827 402.634 420.454 390.656 409.804C380.671 401.148 393.313 373.207 425.925 359.215C407.283 351.887 402.634 332.603 405.954 308.626C407.947 295.32 413.283 282.678 409.94 262.043C407.283 241.409 393.313 223.454 368.007 225.446L368.051 225.424ZM344.096 444.387C348.745 444.387 352.753 448.372 352.753 453.043C352.753 457.715 348.767 461.7 344.096 461.7C339.424 461.7 335.439 457.715 335.439 453.043C335.439 448.372 339.424 444.387 344.096 444.387ZM338.76 409.76C343.41 409.76 347.417 413.745 347.417 418.417C347.417 423.088 343.432 427.073 338.76 427.073C334.089 427.073 330.104 423.088 330.104 418.417C330.104 413.745 334.089 409.76 338.76 409.76ZM338.76 371.17C343.41 371.17 347.417 375.156 347.417 379.827C347.417 384.499 343.432 388.484 338.76 388.484C334.089 388.484 330.104 384.499 330.104 379.827C330.104 375.156 334.089 371.17 338.76 371.17Z" fill="white"/>
<path fill-rule="evenodd" clip-rule="evenodd" d="M560.379 371.169C545.081 378.498 523.782 384.475 501.82 384.475C479.857 384.475 455.238 375.155 440.603 369.177C438.611 368.513 433.939 371.834 435.954 375.841C442.618 389.147 474.543 398.468 500.513 398.468C526.483 398.468 550.417 395.147 565.737 377.833C568.394 375.177 563.08 369.841 560.424 371.169H560.379ZM481.185 425.744C486.499 428.401 494.491 429.065 500.491 429.065C506.491 429.065 515.126 428.401 521.126 426.408C518.469 454.349 519.133 492.96 501.82 492.96C483.842 492.296 483.842 457.027 481.185 425.744ZM559.051 392.468C545.745 399.796 522.454 405.774 501.156 405.774C479.857 405.774 455.902 399.774 441.267 392.468C439.275 391.804 434.603 395.125 436.618 399.132C444.611 412.438 475.208 421.095 501.178 421.095C527.148 421.095 553.76 414.431 564.409 399.132C566.401 396.475 561.088 391.139 559.095 392.468H559.051Z" fill="#121517"/>
<path fill-rule="evenodd" clip-rule="evenodd" d="M325.454 479.655C314.805 475.669 304.156 477.662 295.499 482.311C284.186 489.64 272.872 501.617 275.529 520.901C278.186 536.864 286.178 544.856 292.156 549.528C276.858 560.177 259.544 546.207 259.544 526.901C259.544 503.61 291.492 428.401 291.492 394.461C293.484 375.819 287.507 317.259 272.85 302.625C238.91 345.886 227.597 381.819 225.604 413.102C224.276 443.722 217.611 574.147 271.522 570.162C282.171 569.498 288.835 566.177 294.149 562.17C292.82 562.17 290.828 560.177 290.828 558.849C290.828 556.192 292.82 555.528 294.149 555.528C296.805 555.528 297.47 556.192 297.47 558.184C298.134 560.841 298.134 564.184 298.798 568.169C286.156 583.468 258.194 584.796 244.223 574.169C228.925 562.192 222.925 543.55 216.283 519.595C209.619 488.975 209.619 443.722 214.29 408.453C180.35 423.752 170.365 475.669 187.679 528.916C196.999 556.192 224.94 610.766 278.85 597.46C285.514 596.132 292.156 590.796 298.156 585.483C296.828 584.819 295.499 583.49 295.499 582.162C295.499 579.505 296.828 578.841 298.82 578.841C300.148 578.841 300.813 578.841 301.477 580.169C302.141 583.49 302.141 587.498 302.805 592.147C292.156 605.453 273.514 611.453 256.887 610.124C222.283 608.796 200.32 579.505 186.35 552.229C171.052 606.139 217.634 635.408 248.917 635.408C274.201 635.408 292.178 624.759 301.499 612.117C300.171 612.117 298.178 610.789 298.178 608.796C298.178 606.803 300.171 605.475 301.499 605.475C303.492 605.475 304.156 606.139 304.82 606.803V606.139C305.484 610.788 306.813 614.132 307.477 618.117C300.149 628.766 286.178 638.087 270.88 642.072C240.925 649.4 215.641 642.736 194.343 622.766C191.022 666.691 251.574 672.005 272.872 668.02C290.85 665.363 300.813 656.042 308.141 643.4C306.148 643.4 304.82 641.408 304.82 640.079C304.82 637.423 306.148 636.758 308.141 636.758C309.469 636.758 310.134 636.758 310.798 637.423V636.758C312.126 640.744 313.455 645.415 314.783 649.4C305.462 667.378 286.156 676.012 277.522 677.341C243.581 684.005 232.932 677.341 210.305 668.02C218.962 715.266 279.514 706.609 294.149 699.303C306.126 693.303 315.447 684.005 320.096 671.363H319.432C316.775 671.363 316.111 670.035 316.111 668.042C316.111 666.049 317.44 664.721 319.432 664.721C320.096 664.721 321.425 664.721 322.089 665.385C328.089 678.691 336.723 690.005 348.037 696.669C380.649 717.303 419.238 705.325 445.208 706.654C441.223 723.967 457.85 723.967 463.85 720.624C472.507 715.31 472.507 703.311 467.171 696.669C458.514 685.355 431.238 693.348 396.634 687.348C368.007 684.027 340.731 656.064 340.731 613.467C340.731 596.154 334.731 555.572 340.067 532.281C330.081 539.609 318.768 539.609 312.126 536.93C304.134 533.609 294.813 525.617 294.813 511.647C294.813 503.654 297.47 499.669 303.469 495.02C302.141 498.341 301.477 501.02 301.477 504.34C301.477 518.975 308.141 526.967 322.775 526.967C336.746 526.303 347.395 518.311 347.395 504.34C346.066 489.706 333.425 483.042 325.432 479.721L325.454 479.655Z" fill="#121517"/>
<path fill-rule="evenodd" clip-rule="evenodd" d="M412.641 740.528C412.641 740.528 431.947 739.199 436.596 750.513C441.245 763.155 449.902 772.475 455.238 778.453C442.596 776.461 429.29 763.155 427.297 757.155C424.64 747.834 411.999 737.849 412.663 740.528H412.641ZM370.708 742.52C370.708 742.52 394.663 737.871 409.962 748.52C425.26 758.505 426.589 774.468 445.23 781.796C433.917 783.789 424.596 782.461 411.954 780.468C399.313 778.475 390.656 767.162 387.335 760.498C383.35 753.17 370.708 742.52 370.708 742.52ZM287.529 742.52C287.529 742.52 319.477 739.199 329.462 747.17C338.782 755.162 346.775 774.446 366.059 781.774C354.081 783.767 338.782 782.438 328.797 778.453C318.812 774.468 310.82 763.155 308.163 758.483C304.842 753.834 287.529 742.52 287.529 742.52ZM336.103 742.52C336.103 742.52 362.716 742.52 371.372 754.498C380.029 765.811 388.685 774.468 397.984 781.774C386.007 783.767 390.656 783.103 378.014 781.11C365.372 779.117 352.73 764.483 351.402 759.811C348.745 751.819 335.439 739.841 336.103 742.498V742.52ZM413.305 791.095C402.656 797.759 392.006 800.416 378.036 800.416C364.066 800.416 362.073 797.759 353.417 791.095H413.305ZM425.947 791.095C415.297 800.416 398.006 809.072 380.693 809.072C361.387 809.072 354.745 801.08 344.76 794.438C343.432 793.11 338.096 789.789 331.454 791.117C341.439 798.445 341.439 807.08 349.432 813.744C360.081 823.065 369.402 823.065 380.715 823.065C411.999 822.401 425.969 796.453 434.625 792.446L425.969 791.117L425.947 791.095ZM499.827 687.946C489.178 721.222 447.909 730.543 447.245 750.513C446.581 773.804 471.2 782.46 499.827 782.46C528.454 782.46 553.073 775.796 553.073 750.513C553.737 727.886 513.819 725.229 499.827 687.946ZM551.059 791.095H449.902C458.559 806.394 480.521 817.043 500.491 808.408C525.775 818.393 545.081 803.095 551.081 791.095H551.059ZM500.491 841.684C474.543 846.998 435.268 827.05 436.596 791.781C445.253 793.774 451.894 806.416 459.887 810.423C467.879 815.072 477.864 821.072 501.156 816.423C526.439 821.736 534.432 815.095 542.424 811.109C550.416 807.124 556.394 792.468 565.051 791.803C565.715 827.072 528.454 847.706 500.491 841.707V841.684ZM588.32 740.528C588.32 740.528 569.014 739.199 564.365 750.513C559.715 763.155 551.058 772.475 545.723 778.453C558.365 776.461 571.671 763.155 573.663 757.155C576.984 747.834 588.962 737.849 588.298 740.528H588.32ZM630.917 742.52C630.917 742.52 606.961 737.871 591.663 748.52C576.364 758.505 575.036 774.468 556.394 781.796C567.708 783.789 577.029 782.461 589.67 780.468C602.312 778.475 610.969 767.162 614.29 760.498C618.275 753.17 630.917 742.52 630.917 742.52ZM714.118 742.52C714.118 742.52 682.17 739.199 672.185 747.17C662.864 755.162 654.872 774.446 635.588 781.774C647.566 783.767 662.864 782.438 672.849 778.453C682.835 774.468 690.827 763.155 693.484 758.483C696.805 753.834 714.118 742.52 714.118 742.52ZM665.521 742.52C665.521 742.52 638.909 742.52 630.252 754.498C621.596 765.811 612.939 774.468 603.641 781.774C615.618 783.767 610.969 783.103 623.611 781.11C636.252 779.117 648.894 764.483 650.223 759.811C652.879 751.819 666.185 739.841 665.521 742.498V742.52ZM586.991 791.095C597.641 797.759 606.961 801.08 620.932 801.08C634.902 801.08 638.909 797.759 648.208 791.095H586.991ZM575.678 791.095C586.327 800.416 603.618 809.072 620.932 809.072C638.245 809.072 652.879 797.095 659.521 793.774C661.514 793.11 665.521 791.781 670.171 792.446C660.185 800.438 656.2 808.408 650.865 813.08C642.872 820.408 632.887 823.065 620.91 823.065C589.626 823.065 575.656 796.453 566.999 792.446L575.656 791.117L575.678 791.095Z" fill="white"/>
<path fill-rule="evenodd" clip-rule="evenodd" d="M489.178 205.454C492.499 254.028 439.939 278.67 432.611 309.931C425.947 337.872 432.611 375.155 500.491 376.483C554.402 377.812 571.693 359.857 570.365 325.23C568.372 292.618 527.768 279.976 533.768 248.029C519.797 253.342 511.141 267.334 513.797 281.305C519.111 304.596 531.775 328.551 501.156 329.215C490.506 329.215 483.178 318.566 486.521 305.26C490.506 287.947 507.82 263.991 507.82 242.693C507.82 228.058 503.17 214.066 489.178 205.432V205.454Z" fill="#EC1E26"/>
<path fill-rule="evenodd" clip-rule="evenodd" d="M478.529 562.834C484.529 558.185 471.2 537.551 467.215 526.901C461.902 529.558 459.223 530.222 455.238 533.565C449.924 537.551 449.238 539.565 445.917 544.879C456.566 554.2 473.193 567.506 478.529 562.856V562.834ZM499.827 554.842C507.155 554.842 510.476 530.887 514.461 520.237C508.462 518.909 506.469 517.581 500.491 517.581C494.514 517.581 491.835 518.245 485.857 520.237C489.178 533.543 493.185 554.842 499.827 554.842ZM521.79 562.17C527.79 566.155 545.745 550.857 555.066 544.857C551.745 540.207 550.416 538.193 545.745 534.208C541.096 530.222 539.081 529.558 533.103 526.879C527.103 538.857 515.79 557.499 521.79 562.148V562.17ZM533.767 582.14C535.096 588.804 559.051 588.14 570.364 590.133C570.364 584.133 571.029 581.476 570.364 575.498C569.7 569.498 568.372 567.506 565.051 561.528C552.409 567.528 531.775 574.834 533.767 582.162V582.14ZM529.76 604.767C526.439 610.767 545.059 626.065 552.387 634.722C556.372 630.737 558.387 628.722 561.708 623.409C565.029 618.095 565.029 616.08 567.021 609.438C553.715 605.453 533.081 598.125 529.76 604.789V604.767ZM512.469 619.401C505.805 622.058 510.476 646.013 511.14 656.663C517.14 655.998 519.797 656.663 525.111 654.006C531.111 652.013 533.103 650.685 537.753 646.678C529.76 635.364 519.111 616.722 512.469 619.401ZM489.178 619.401C482.514 616.745 471.2 638.043 463.894 646.678C468.544 649.998 470.558 651.991 475.872 653.342C481.872 655.998 483.864 655.998 490.506 655.998C492.499 643.357 496.506 622.058 489.178 619.401ZM471.865 605.431C468.544 599.431 445.917 608.088 435.268 610.08C436.596 616.08 436.596 618.737 439.917 623.387C443.238 629.386 444.566 630.715 449.238 634.7C459.223 625.379 475.85 611.409 471.865 605.409V605.431ZM467.215 582.804C468.544 575.476 445.253 568.17 435.932 562.834C433.275 568.148 431.947 570.163 431.282 576.14C429.954 582.804 430.618 584.797 431.282 590.775C445.253 590.11 466.551 590.11 467.215 582.782V582.804ZM499.827 567.484C488.514 567.484 479.193 576.804 479.193 588.118C479.193 599.431 488.514 609.416 499.827 609.416C511.141 609.416 521.126 600.095 521.126 588.118C521.126 576.804 511.805 567.484 499.827 567.484ZM500.491 499.603C451.917 499.603 411.977 539.543 411.977 588.118C411.977 636.693 451.23 676.633 500.491 676.633C549.752 676.633 589.006 637.379 589.006 588.118C589.006 538.857 549.066 499.603 500.491 499.603Z" fill="#EC1E26"/>
<path fill-rule="evenodd" clip-rule="evenodd" d="M676.171 479.655C686.82 475.67 697.469 477.662 706.126 482.312C717.439 489.64 728.752 501.618 726.096 520.901C723.439 536.864 715.446 544.857 709.469 549.528C724.767 560.177 742.081 546.207 742.081 526.901C742.081 503.61 710.133 428.401 710.133 394.461C707.476 376.484 713.454 317.924 728.11 303.29C762.051 346.551 774.028 382.484 775.357 413.767C776.685 444.386 783.349 574.812 729.439 570.827C718.79 570.162 712.125 566.841 706.812 562.834C708.14 562.834 710.133 560.842 710.133 559.513C710.133 556.856 708.14 556.192 706.812 556.192C704.155 556.192 703.491 556.856 703.491 558.849C702.827 561.506 702.827 564.849 702.163 568.834C714.804 584.133 742.767 585.461 756.737 574.834C772.036 562.856 778.036 544.215 784.677 520.259C791.342 489.64 791.342 444.386 786.67 409.118C823.267 425.08 832.588 476.998 815.297 530.244C805.976 557.521 778.036 612.095 724.125 598.789C717.461 597.461 710.819 592.125 704.819 586.812C706.148 586.147 707.476 584.819 707.476 583.491C707.476 580.834 706.148 580.17 704.155 580.17C702.827 580.17 702.163 580.17 701.498 581.498C700.834 584.819 700.834 588.826 700.17 593.476C710.819 606.782 729.461 612.781 746.088 611.453C780.692 610.125 802.655 580.834 816.625 553.558C832.588 608.796 786.006 638.087 754.722 638.087C729.439 638.087 711.461 627.438 702.14 614.796C703.469 614.796 705.461 613.468 705.461 611.475C705.461 609.483 703.469 608.154 702.14 608.154C700.148 608.154 699.484 608.818 698.819 609.483V608.818C698.155 613.468 696.827 616.811 696.163 620.796C703.491 631.445 717.461 640.766 732.76 644.751C762.715 652.08 787.999 645.415 809.297 625.445C812.618 669.371 752.066 674.684 730.767 670.699C712.79 668.042 702.827 658.721 695.499 646.08C697.491 646.08 698.819 644.087 698.819 642.759C698.819 640.102 697.491 639.438 695.499 639.438C694.17 639.438 693.506 639.438 692.842 640.102V639.438C691.513 643.423 690.185 648.094 688.857 652.08C698.177 670.057 717.483 678.692 726.118 680.02C760.058 686.684 770.707 680.02 793.334 670.699C784.678 717.945 724.125 709.289 709.491 701.983C697.513 695.983 688.192 686.684 683.543 674.042H684.207C686.864 674.042 687.528 672.714 687.528 670.721C687.528 668.729 686.2 667.4 684.207 667.4C683.543 667.4 682.215 667.4 681.55 668.064C675.551 681.37 666.916 692.684 655.603 699.348C622.991 719.982 584.401 708.005 558.431 709.333C562.416 726.646 545.789 726.646 539.789 723.303C531.133 717.99 531.133 705.99 536.468 699.348C545.125 688.035 572.401 696.027 607.006 690.027C635.633 686.706 662.909 658.744 662.909 616.147C662.909 598.833 668.909 558.251 663.573 534.96C673.558 542.288 684.871 542.288 691.513 539.61C699.506 536.289 708.827 528.296 708.827 514.326C708.827 506.333 705.506 502.348 700.17 497.699C701.498 501.02 702.163 503.699 702.163 507.02C702.163 521.654 695.499 529.647 680.864 529.647C666.894 528.982 656.245 520.99 656.245 507.02C655.581 489.706 667.558 483.065 676.215 479.744L676.171 479.655Z" fill="#121517"/>
<path fill-rule="evenodd" clip-rule="evenodd" d="M632.909 225.423C627.596 234.744 620.932 239.393 624.253 254.05C627.574 270.013 649.536 281.326 661.514 304.617C668.178 317.923 675.484 331.893 675.484 357.863C675.484 357.863 676.812 355.206 690.783 354.542C693.439 369.177 688.126 389.147 675.484 400.46C679.469 405.109 682.148 411.109 689.454 419.102C686.798 429.087 676.812 434.4 668.82 443.057C672.141 449.057 684.119 455.035 687.462 466.348C672.827 463.691 644.865 480.318 640.88 504.273C638.887 518.244 636.23 534.893 636.23 552.184C636.23 565.49 634.238 594.781 645.551 600.759C632.245 612.736 633.573 626.706 630.252 640.699C626.931 655.333 621.596 665.982 613.626 669.99C601.648 676.654 583.006 672.646 578.357 656.684C577.028 653.363 579.685 646.034 582.342 642.714C588.342 636.714 596.976 637.4 600.32 648.713C606.984 653.363 611.633 648.713 611.633 635.407C611.633 622.101 608.312 604.788 603.641 599.475C617.611 590.818 609.64 550.236 606.962 530.93C603.641 511.624 598.305 494.333 591.663 480.34C579.685 458.378 567.044 449.057 550.394 434.422C565.693 425.766 577.006 402.475 579.685 385.848C586.349 398.49 598.327 421.117 610.305 410.467C620.29 401.811 607.648 373.87 575.036 359.878C593.678 352.55 598.327 333.266 595.006 309.311C593.013 296.005 587.678 283.363 591.021 262.729C593.678 241.43 607.648 223.475 632.954 225.467L632.909 225.423ZM656.887 444.385C652.237 444.385 648.23 448.371 648.23 453.042C648.23 457.714 652.215 461.699 656.887 461.699C661.558 461.699 665.543 457.714 665.543 453.042C665.543 448.371 661.558 444.385 656.887 444.385ZM662.2 409.759C657.551 409.759 653.544 413.744 653.544 418.415C653.544 423.087 657.529 427.072 662.2 427.072C666.872 427.072 670.857 423.087 670.857 418.415C670.857 413.766 666.872 409.759 662.2 409.759ZM661.536 371.169C656.887 371.169 652.879 375.154 652.879 379.826C652.879 384.497 656.864 388.482 661.536 388.482C666.207 388.482 670.193 384.497 670.193 379.826C670.193 375.154 666.872 371.169 661.536 371.169Z" fill="white"/>
</svg>
