<?xml version="1.0" encoding="UTF-8"?>
<svg id="Layer_1" data-name="Layer 1" xmlns="http://www.w3.org/2000/svg" viewBox="0 0 950 950">
  <defs>
    <style>
      .cls-1 {
        letter-spacing: -.07em;
      }

      .cls-2 {
        fill: #fff;
      }

      .cls-2, .cls-3, .cls-4, .cls-5 {
        fill-rule: evenodd;
      }

      .cls-3 {
        fill: #19244d;
      }

      .cls-4 {
        fill: #e50013;
      }

      .cls-5 {
        fill: gold;
      }

      .cls-6 {
        font-family: ArialMT, Arial;
        font-size: 36.75px;
      }
    </style>
  </defs>
  <path class="cls-4" d="m442.73,87.18l.2.04h.27l.25-.07.25-.11.22-.16.18-.22.13-.24.07-.27.02-.27-.07-1.93-.04-1.91.04-1.89.05-1.87.13-1.87.16-1.85.22-1.85.27-1.83.56-3.07.69-3.03.85-3.05.98-3.03,1.14-3.05,1.29-3.07,1.43-3.09,1.6-3.14,1.71-3.09,1.89-3.18,2.07-3.29,2.29-3.45,2.45-3.54,2.8-3.89,3.18-4.32,4.5-5.99.05-.09.27-.27.15-.07.15-.02h0l.13.04.13.07.27.27,1.51,2.07,4.36,6.07,3.11,4.38,2.72,3.96,2.4,3.63,2.23,3.54,2.02,3.36,1.83,3.27,1.65,3.16,1.54,3.23,1.38,3.2,1.22,3.14,1.05,3.14.91,3.12.4,1.56.38,1.56.31,1.56.29,1.56.25,1.58.22,1.58.29,2.83.18,2.87.05,2.87-.05,2.91v.09l.04.25.09.24.13.22.18.18.2.15.24.11.25.05h.25l2.82-.36,2.78-.45,2.76-.6,2.71-.69h0l2.45-.73,2.43-.84,2.4-.93,2.38-1.02.24-.07h.24l.24.05.2.13.16.18.11.2.05.24-.02.24-.09.25-.16.22-1.67,1.6-1.63,1.62-1.62,1.65-1.56,1.69-1.53,1.71-1.49,1.73-1.47,1.76-1.42,1.8h0l-1.58,2.07-1.53,2.11-1.49,2.14-1.43,2.18-1.4,2.23-1.34,2.25-1.29,2.29-1.25,2.32-1.25,2.29-1.33,2.18-1.38,2.03-1.45,1.94-1.49,1.8-1.56,1.69-1.62,1.56-1.65,1.4-1.71,1.29-1.74,1.14-1.8,1.02-1.83.85-.93.38-.94.36-.94.29-.94.27-.96.24-.96.2-.96.16-.98.13-1.22.11-1.24.05-1.24-.02-1.24-.05-1.25-.13-1.24-.18-1.24-.25-1.23-.29-1.24-.36-1.22-.4-1.22-.47-1.2-.53-1.2-.58-1.2-.64-1.18-.67-1.16-.74-1.14-.78-1.13-.85-1.11-.89-1.11-.94-1.07-.98-1.05-1.04-1.04-1.09-1.02-1.13-.98-1.18-.96-1.22-.94-1.25-.91-1.29-.87-1.33-.87-1.38-.82-1.42-.8-1.45-1.05-1.93-1.09-1.91-1.11-1.89-1.16-1.85-1.18-1.83-1.22-1.8-1.24-1.8-1.29-1.76h0l-1.47-1.94-1.53-1.91-1.56-1.89-1.6-1.85-1.65-1.82-1.69-1.8-1.73-1.76-1.76-1.73-.11-.16v-.2l.09-.16.16-.11h.2l21.16,5.49h0Zm51.46,12.21l.11-1.71.02-1.67-.04-1.67-.13-1.67-.22-1.91-.33-1.93-.44-1.93-.53-1.93-.62-1.94-.73-1.94-.84-1.98-.94-2.02-1.04-2-1.13-2.03-1.27-2.12-1.4-2.25-1.53-2.31-1.74-2.54-4.81-6.76-1.09-1.53-.24-.24-.11-.05-.13-.02-.11.02-.13.05-.24.24-3.03,4.05-2.25,3.11-1.98,2.83-1.74,2.63-1.62,2.6-1.43,2.47-1.27,2.4-1.14,2.36-1.04,2.4-.89,2.36-.73,2.32-.6,2.31-.47,2.31-.31,2.29-.18,2.29-.05,2.27.05,1.49.11,1.51v.25l-.04.22-.05.18-.11.13h0l-.15.07-.18.04h-.22l-.25-.05-13.04-3.6-.51-.09-.15.02-.07.05h0l-.02.09.05.15.33.4,2.14,2.34,2.09,2.42,2,2.45,1.94,2.51h0l1.54,2.13,1.51,2.16,1.45,2.22,1.4,2.23,1.11,1.74,1.14,1.65,1.16,1.54,1.18,1.42,1.2,1.33,1.22,1.2,1.25,1.11,1.27.98,1.27.89,1.31.74,1.29.64,1.33.51,1.31.4,1.33.27,1.31.16,1.33.02,1.29-.07,1.27-.2,1.29-.33,1.27-.44,1.25-.54,1.25-.67,1.22-.76,1.22-.89,1.2-1,1.18-1.11,1.16-1.22,1.13-1.31,1.11-1.42,1.09-1.54,1.05-1.62,1.04-1.73,1.04-1.76,1.07-1.73,1.13-1.69,1.14-1.67,1.2-1.62,1.24-1.58,1.27-1.56,1.31-1.53h0l1.16-1.27,1.18-1.24,1.2-1.22,1.24-1.2.11-.2.02-.22-.11-.2-.2-.11h-.22l-13.1,3.51-.29.05-.25.02-.22-.05-.16-.09h0l-.13-.15-.07-.2-.04-.24v-.31Z"/>
  <polygon class="cls-5" points="502.4 511.47 502.12 511.4 501.94 511.25 501.94 511.25 501.8 511.02 501.74 510.71 501.56 470.04 501.45 429.31 501.45 388.53 501.52 347.68 501.49 339.16 501.31 330.06 501 320.2 500.47 307.01 500 295.29 499.73 286.79 499.54 279.11 499.49 272.06 499.54 265.16 499.71 258.57 500 252.17 500.42 245.96 500.67 243.05 501 240.18 501.4 237.37 501.85 234.57 502.38 231.81 502.96 229.09 503.61 226.42 504.34 223.76 505.14 221.15 505.99 218.59 506.92 216.04 507.9 213.56 508.97 211.08 510.08 208.67 511.28 206.27 512.53 203.93 512.53 203.93 513.8 201.69 515.13 199.51 516.53 197.35 517.96 195.25 519.49 193.16 521.05 191.1 522.69 189.09 524.39 187.11 526.14 185.15 527.97 183.24 529.84 181.35 531.79 179.5 533.78 177.7 535.85 175.9 537.98 174.16 540.16 172.45 552.49 163.09 564.9 153.85 577.4 144.69 590 135.63 591.38 134.59 592.85 133.38 594.36 132.05 595.94 130.56 597.54 128.96 599.18 127.24 600.81 125.42 602.41 123.57 603.99 121.64 605.5 119.72 606.95 117.77 608.28 115.87 609.53 114.01 610.64 112.22 611.64 110.49 612.49 108.87 613.42 106.95 614.25 104.95 615.03 102.93 615.72 100.84 616.34 98.72 616.9 96.54 617.38 94.32 617.78 92.05 618.09 89.75 618.34 87.38 618.5 84.99 618.61 82.53 618.63 80.06 618.58 77.54 618.45 74.98 618.23 72.38 617.96 69.75 617.59 67.06 617.16 64.33 616.63 61.59 616.05 58.81 615.38 56.01 614.65 53.2 613.83 50.37 612.94 47.51 612 44.66 610.96 41.81 609.87 38.96 608.71 36.11 607.51 33.29 606.22 30.48 604.9 27.71 604.86 27.48 604.95 27.24 605.15 27.1 605.39 27.08 605.53 27.15 605.64 27.24 609.02 31.47 612.15 35.43 615.07 39.21 617.85 42.86 620.52 46.44 623.06 49.93 625.51 53.34 627.84 56.71 630.09 60.03 632.27 63.32 634.34 66.55 636.32 69.77 638.21 72.91 640.03 76.03 641.74 79.1 643.37 82.15 644.93 85.21 646.42 88.22 647.8 91.2 649.11 94.14 650.33 97.07 651.47 99.95 652.51 102.81 653.47 105.62 654.36 108.44 655.14 111.2 655.85 113.94 656.47 116.63 657.01 119.32 657.45 121.95 657.83 124.59 658.1 127.18 658.32 130.05 658.41 132.9 658.39 135.68 658.28 138.46 658.05 141.21 657.68 143.93 657.23 146.62 656.67 149.27 656.21 151.09 655.7 152.89 655.14 154.68 654.52 156.46 653.85 158.23 653.14 159.99 652.36 161.73 651.53 163.48 650.64 165.2 649.71 166.91 648.73 168.62 647.67 170.32 646.57 172.01 645.4 173.72 644.21 175.39 642.93 177.06 641.61 178.73 640.23 180.4 638.81 182.06 637.3 183.71 635.76 185.38 634.14 187.03 632.47 188.71 630.71 190.38 628.91 192.05 627.04 193.74 625.08 195.45 623.06 197.15 618.78 200.64 614.11 204.24 608.28 208.6 600.14 214.59 589.22 222.64 585.06 225.76 581.27 228.67 577.61 231.52 574.18 234.24 570.91 236.91 567.82 239.51 564.77 242.15 561.83 244.76 559.03 247.34 556.36 249.9 553.8 252.44 551.33 254.99 548.99 257.51 546.74 260.04 544.52 262.65 542.39 265.27 540.36 267.9 538.45 270.54 536.62 273.17 534.89 275.84 533.26 278.51 531.73 281.18 530.28 283.89 528.93 286.61 527.68 289.36 526.52 292.1 525.45 294.88 524.47 297.67 523.58 300.51 522.78 303.34 522.52 304.36 522.18 305.83 521.85 307.43 521.54 309.1 521.25 310.9 520.74 314.79 520.32 319.09 519.96 323.81 519.69 328.94 519.51 334.48 519.4 340.43 519.18 361.87 519 383.28 518.87 404.68 518.78 426.1 518.73 447.48 518.71 468.86 518.73 490.22 518.8 511.58 518.76 512.11 518.67 512.56 518.49 512.94 518.24 513.21 518.24 513.21 517.93 513.43 517.53 513.54 517.07 513.58 516.53 513.54 502.4 511.47"/>
  <polygon class="cls-5" points="450.77 274.71 450.65 281.05 450.46 288.01 450.21 295.75 449.83 306.34 449.36 319.07 449.08 328.26 448.9 336.44 448.85 343.76 448.81 426.84 448.83 509.98 448.81 510.27 448.76 510.54 448.65 510.78 448.52 510.98 448.52 510.98 448.34 511.14 448.12 511.29 447.87 511.38 447.56 511.45 432.81 513.72 432.72 513.74 432.48 513.72 432.26 513.67 432.05 513.58 431.86 513.43 431.72 513.25 431.59 513.05 431.52 512.83 431.5 512.6 431.57 490.51 431.59 468.49 431.57 446.55 431.52 424.72 431.43 402.94 431.3 381.25 431.12 359.63 430.9 338.11 430.79 332.73 430.61 327.7 430.36 323.03 430.03 318.69 429.61 314.71 429.1 311.1 428.54 307.81 428.21 306.3 427.89 304.89 427.32 302.74 426.72 300.63 425.85 297.91 424.91 295.22 423.89 292.55 422.8 289.9 421.6 287.28 420.35 284.67 418.99 282.07 417.57 279.51 416.04 276.97 414.44 274.42 412.75 271.9 410.99 269.39 409.12 266.89 407.18 264.4 405.14 261.91 403 259.44 400.86 257.04 398.62 254.64 396.28 252.24 393.85 249.83 391.3 247.41 388.67 244.96 385.89 242.49 383 239.98 380.09 237.53 377.03 235.01 373.79 232.41 370.36 229.72 366.78 226.96 362.88 224 352.61 216.35 343.64 209.69 337.23 204.82 331.6 200.4 329.04 198.33 326.62 196.32 324.24 194.28 321.97 192.3 319.81 190.36 317.75 188.43 315.79 186.54 313.92 184.66 312.14 182.8 310.45 180.97 309.2 179.53 307.98 178.1 306.82 176.63 305.69 175.16 304.6 173.65 303.57 172.14 302.59 170.61 301.64 169.07 300.73 167.51 299.88 165.95 299.08 164.37 298.32 162.77 297.59 161.13 296.92 159.52 296.3 157.86 295.7 156.19 295.21 154.63 294.74 153.05 294.32 151.43 293.92 149.83 293.58 148.2 293.27 146.56 293 144.91 292.78 143.24 292.58 141.57 292.43 139.88 292.32 138.17 292.25 136.47 292.23 134.72 292.23 132.98 292.29 131.22 292.38 129.45 292.51 127.66 292.67 125.88 292.89 124.06 293.14 122.24 293.41 120.39 293.74 118.55 294.52 114.81 295.45 111.02 296.54 107.18 297.79 103.28 299.21 99.35 300.77 95.36 302.48 91.34 304.37 87.26 306.38 83.13 308.58 78.94 310.93 74.69 313.43 70.4 316.1 66.04 318.92 61.66 321.9 57.2 325.04 52.67 328.34 48.09 331.83 43.43 335.5 38.67 339.37 33.8 343.48 28.75 343.97 28.19 344.33 27.81 344.6 27.61 344.69 27.57 344.77 27.59 344.77 27.59 344.82 27.64 344.82 27.73 344.78 28.08 344.62 28.59 344.37 29.28 342.06 35.16 340.01 40.72 339.08 43.39 338.23 46.01 337.41 48.55 336.66 51.04 335.97 53.47 335.34 55.85 334.74 58.21 334.21 60.5 333.74 62.75 333.32 64.97 332.96 67.15 332.63 69.29 332.38 71.42 332.16 73.51 332 75.56 331.89 77.59 331.83 79.59 331.83 81.57 331.89 83.52 332 85.44 332.16 87.33 332.36 89.22 332.63 91.07 332.94 92.91 333.3 94.72 333.74 96.52 334.21 98.28 334.74 100.05 335.68 102.81 336.79 105.53 338.03 108.22 339.41 110.89 340.91 113.51 342.59 116.1 344.38 118.65 346.35 121.19 348.43 123.7 350.69 126.2 353.08 128.65 355.65 131.11 358.35 133.54 361.22 135.96 364.24 138.35 367.43 140.73 372.81 144.58 380.35 149.89 389.61 156.43 396.35 161.31 399.44 163.62 402.35 165.82 405.09 167.98 407.69 170.07 410.25 172.19 412.7 174.3 415.03 176.35 417.24 178.42 419.35 180.44 421.38 182.48 423.29 184.47 425.12 186.49 427.03 188.69 428.87 190.94 430.61 193.21 432.28 195.52 433.86 197.86 435.37 200.24 436.8 202.64 438.17 205.09 439.04 206.8 439.89 208.5 440.71 210.25 441.47 211.99 442.24 213.77 442.94 215.57 443.62 217.41 444.25 219.24 444.87 221.11 445.45 223 446 224.93 446.52 226.87 446.99 228.85 447.45 230.87 448.27 234.97 448.97 239.18 449.54 243.54 450.01 248.07 450.37 252.83 450.63 257.77 450.77 263.02 450.83 268.63 450.77 274.71"/>
  <polygon class="cls-2" points="495.35 100.35 508.44 96.85 508.66 96.85 508.86 96.96 508.97 97.16 508.95 97.38 508.84 97.58 507.61 98.77 506.41 99.99 505.23 101.23 504.07 102.5 504.07 102.5 502.76 104.02 501.49 105.59 500.25 107.17 499.05 108.78 497.91 110.45 496.78 112.14 495.71 113.87 494.68 115.63 493.64 117.36 492.59 118.97 491.5 120.52 490.39 121.93 489.26 123.24 488.1 124.46 486.92 125.57 485.72 126.57 484.5 127.46 483.29 128.22 482.03 128.89 480.78 129.44 479.51 129.87 478.22 130.2 476.95 130.4 475.66 130.47 474.33 130.45 473.02 130.29 471.7 130.02 470.39 129.62 469.06 129.11 467.77 128.47 466.47 127.73 465.2 126.84 463.92 125.86 462.67 124.75 461.45 123.55 460.25 122.22 459.07 120.81 457.91 119.26 456.77 117.61 455.66 115.87 454.26 113.63 452.81 111.42 451.3 109.25 449.76 107.13 449.76 107.13 447.81 104.62 445.81 102.17 443.72 99.75 441.58 97.41 441.25 97.01 441.2 96.87 441.22 96.78 441.22 96.78 441.29 96.72 441.44 96.7 441.94 96.79 454.99 100.39 455.24 100.44 455.46 100.44 455.64 100.41 455.79 100.34 455.79 100.34 455.9 100.21 455.95 100.03 455.99 99.81 455.99 99.55 455.88 98.05 455.82 96.56 455.88 94.29 456.06 92 456.37 89.71 456.84 87.4 457.44 85.1 458.17 82.77 459.06 80.41 460.09 78.01 461.24 75.65 462.51 73.25 463.94 70.78 465.56 68.18 467.3 65.55 469.28 62.72 471.53 59.61 474.57 55.56 474.8 55.32 474.93 55.27 475.04 55.25 475.17 55.27 475.28 55.32 475.51 55.56 476.6 57.09 481.42 63.84 483.16 66.39 484.69 68.69 486.08 70.95 487.36 73.07 488.48 75.11 489.52 77.1 490.46 79.12 491.3 81.1 492.02 83.04 492.64 84.99 493.17 86.91 493.6 88.84 493.93 90.76 494.15 92.67 494.28 94.34 494.31 96.01 494.29 97.68 494.19 99.39 494.19 99.7 494.22 99.94 494.29 100.14 494.42 100.28 494.42 100.28 494.59 100.37 494.8 100.43 495.06 100.41 495.35 100.35"/>
  <polygon class="cls-5" points="563.39 541.84 563.41 543.82 563.54 547.02 563.7 551.3 563.76 554.52 563.7 557.35 563.54 559.79 563.41 560.5 563.34 560.68 563.25 560.75 563.25 560.75 563.12 560.71 562.99 560.55 562.7 559.88 559.56 551.38 556.34 542.97 555.71 541.4 555.07 539.91 554.42 538.53 553.75 537.21 553.04 535.96 552.31 534.77 551.57 533.63 550.79 532.54 550.04 531.58 549.24 530.63 548.39 529.67 547.46 528.73 545.41 526.76 542.39 524.08 538.56 520.68 538.25 520.35 538.05 519.99 537.91 519.57 537.87 519.14 537.89 486.28 537.91 452.45 537.87 439.52 537.78 427.68 537.65 416.18 537.49 405.28 537.27 394.84 537 384.79 536.89 378.69 536.91 372.73 537.09 366.95 537.22 364.12 537.4 361.32 537.6 358.56 537.85 355.82 538.13 353.13 538.45 350.48 538.8 347.84 539.18 345.25 539.6 342.69 540.07 340.16 540.56 337.65 541.09 335.17 541.67 332.71 542.27 330.3 542.9 327.9 543.59 325.52 544.3 323.18 545.06 320.85 545.86 318.55 546.68 316.27 547.55 314.02 548.46 311.81 549.41 309.59 550.39 307.41 551.4 305.23 552.48 303.09 554.2 299.8 556.04 296.55 557.94 293.35 559.96 290.19 562.08 287.07 564.32 283.98 566.63 280.94 569.06 277.93 571.58 274.97 574.22 272.03 576.96 269.12 579.79 266.25 582.76 263.42 585.83 260.6 589 257.82 592.29 255.06 595.78 252.24 599.85 249.05 604.61 245.4 611.44 240.18 620.3 233.45 626.9 228.34 632.82 223.65 638.19 219.29 643.28 215.03 647.97 210.94 652.27 207 656.23 203.2 658.16 201.28 659.99 199.33 661.79 197.35 663.5 195.35 665.17 193.34 666.75 191.29 668.29 189.21 669.74 187.13 671.16 185.02 672.49 182.87 673.76 180.71 674.98 178.53 676.12 176.3 677.21 174.07 678.25 171.79 679.19 169.52 680.19 166.96 681.1 164.38 681.92 161.77 682.68 159.13 683.35 156.46 683.97 153.74 684.49 151.01 684.95 148.24 685.31 145.44 685.62 142.59 685.86 139.72 686 136.81 686.07 133.87 686.07 130.89 686 127.89 685.86 124.84 685.62 121.75 685.33 118.63 684.95 115.47 684.49 112.27 683.99 109.04 683.37 105.75 682.7 102.42 681.95 99.05 681.12 95.63 680.21 92.18 679.23 88.66 678.15 85.1 677.03 81.46 675.81 77.79 674.5 74.05 673.12 70.26 673.11 70.04 673.2 69.84 673.4 69.73 673.61 69.73 673.72 69.78 673.81 69.86 678.35 75.29 682.75 80.72 686.96 86.13 691.02 91.53 694.88 96.88 698.59 102.23 702.11 107.51 705.46 112.76 708.6 117.97 711.56 123.11 714.34 128.24 716.92 133.29 718.13 135.77 719.3 138.26 720.44 140.75 721.51 143.2 722.53 145.66 723.51 148.07 724.46 150.51 725.33 152.9 726.16 155.28 726.94 157.63 727.69 159.99 728.36 162.31 729.02 164.64 729.6 166.93 730.14 169.2 730.63 171.47 731.09 173.72 731.49 175.95 731.83 178.17 732.12 180.37 732.38 182.55 732.58 184.71 732.74 186.85 732.85 189 732.9 191.1 732.92 193.21 732.87 195.28 732.79 197.35 732.65 199.39 732.47 201.42 732.23 203.42 731.96 205.42 731.61 207.38 731.25 209.34 730.81 211.27 730.34 213.19 729.81 215.1 729.23 216.97 728.62 218.84 727.94 220.69 727.33 222.27 726.67 223.84 725.98 225.4 725.26 226.94 724.49 228.47 723.69 229.99 722.86 231.48 721.99 232.97 721.08 234.44 720.13 235.91 719.15 237.35 718.13 238.79 717.08 240.2 715.99 241.62 714.87 243 713.7 244.38 710.92 247.52 708 250.63 704.93 253.73 701.71 256.84 698.34 259.95 694.78 263.05 691.05 266.18 687.13 269.36 683.15 272.44 678.94 275.6 674.49 278.84 669.73 282.2 664.79 285.59 659.34 289.26 653.29 293.28 645.01 298.71 633.62 306.19 625.44 311.68 621.72 314.26 618.23 316.69 614.92 319.07 611.82 321.36 608.91 323.58 606.08 325.77 603.35 327.99 600.68 330.23 598.12 332.46 595.63 334.69 593.24 336.93 590.93 339.18 588.73 341.41 586.61 343.67 584.57 345.9 582.65 348.14 580.79 350.39 579.03 352.62 577.38 354.86 575.82 357.11 574.35 359.32 572.98 361.56 571.69 363.79 570.51 365.99 569.42 368.21 568.44 370.42 567.53 372.64 566.73 374.84 566.03 377.03 565.41 379.21 564.9 381.39 564.46 383.57 564.14 385.75 563.92 387.9 563.77 390.08 563.74 392.22 563.83 429.62 563.79 467.04 563.65 504.44 563.39 541.84"/>
  <polygon class="cls-5" points="317.48 223.29 328.82 231.74 337.19 238.08 340.99 241.04 344.57 243.85 347.94 246.58 351.16 249.23 354.34 251.9 357.39 254.52 360.3 257.09 363.09 259.66 365.78 262.16 368.38 264.67 370.87 267.16 373.27 269.65 375.68 272.21 377.99 274.79 380.2 277.37 382.35 279.93 384.4 282.52 386.38 285.12 388.29 287.74 390.1 290.35 391.85 293.01 393.52 295.66 395.12 298.35 396.64 301.05 398.1 303.8 399.46 306.54 400.78 309.34 402.02 312.15 403.06 314.62 404.04 317.15 404.96 319.69 405.83 322.27 406.65 324.85 407.41 327.46 408.14 330.12 408.81 332.79 409.43 335.49 409.99 338.24 410.5 340.98 410.96 343.79 411.37 346.61 411.74 349.46 412.05 352.35 412.3 355.27 412.56 358.91 412.75 362.7 412.88 366.64 412.97 370.8 412.99 375.09 412.97 379.78 412.75 391.93 412.59 400.7 412.36 418.83 412.19 435.92 412.08 451.94 412.03 466.91 412.03 480.81 412.08 493.67 412.19 505.46 412.37 516.19 412.36 517.06 412.3 517.88 412.17 518.64 411.99 519.37 411.76 520.04 411.46 520.66 411.1 521.22 410.7 521.73 410.23 522.2 409.7 522.62 408.45 523.53 407.27 524.46 406.12 525.4 405.03 526.36 404 527.35 402.98 528.38 402.02 529.42 401.09 530.51 400.28 531.52 399.48 532.59 398.71 533.68 397.99 534.81 397.28 535.96 396.61 537.15 395.93 538.39 395.3 539.7 394.1 542.35 392.92 545.33 391.7 548.67 390.14 553.36 388.21 559.04 388.09 559.28 387.87 559.46 387.61 559.55 387.34 559.55 387.09 559.46 386.87 559.3 386.74 559.06 386.69 558.79 386.58 517.01 386.53 475.25 386.56 433.53 386.65 391.84 386.6 389.5 386.43 387.13 386.16 384.77 385.76 382.41 385.24 380.03 384.62 377.63 383.87 375.25 383 372.86 382.04 370.46 380.95 368.06 379.73 365.65 378.41 363.21 376.97 360.8 375.43 358.38 373.76 355.93 371.98 353.49 370.07 351.06 368.07 348.63 365.94 346.17 363.71 343.72 361.37 341.25 358.9 338.8 356.32 336.33 353.63 333.88 350.81 331.39 347.91 328.92 344.89 326.45 341.73 323.96 338.48 321.47 335.1 318.96 331.56 316.44 327.89 313.88 315.72 305.56 303.53 297.29 291.27 289.1 278.99 280.94 275.56 278.66 272.25 276.35 269.04 274.06 265.93 271.77 262.95 269.48 260.05 267.18 257.25 264.87 254.56 262.56 251.96 260.24 249.46 257.91 247.04 255.57 244.73 253.23 242.5 250.85 240.37 248.47 238.34 246.09 236.4 243.69 234.54 241.27 232.78 238.84 231.13 236.41 229.55 233.95 228.08 231.48 226.7 229.01 225.39 226.51 224.19 224 223.08 221.47 222.08 218.95 221.16 216.39 220.32 213.83 219.58 211.23 218.94 208.65 218.38 206.03 217.92 203.42 217.61 201.24 217.36 199.02 217.18 196.83 217.05 194.61 217 192.39 217 190.14 217.07 187.91 217.2 185.64 217.47 182.6 217.83 179.53 218.32 176.43 218.9 173.25 219.59 170.05 220.39 166.8 221.28 163.48 222.28 160.13 223.39 156.74 224.61 153.32 225.93 149.83 227.35 146.31 228.86 142.75 230.49 139.17 232.22 135.54 234.04 131.87 235.98 128.15 238.01 124.4 240.16 120.61 242.39 116.81 244.73 112.96 247.15 109.11 249.67 105.24 252.27 101.35 254.98 97.45 257.76 93.54 260.63 89.62 263.55 85.73 266.57 81.84 269.64 77.98 272.78 74.14 275.94 70.36 276.07 70.26 276.23 70.18 276.39 70.16 276.54 70.18 276.68 70.26 276.81 70.35 276.9 70.49 276.94 70.64 276.96 70.8 276.92 70.95 275.07 76.21 273.36 81.43 271.78 86.57 270.35 91.64 269.06 96.61 267.91 101.5 266.91 106.28 266.06 110.98 265.35 115.54 264.79 120.01 264.37 124.35 264.1 128.6 263.99 132.7 263.99 134.72 264.01 136.72 264.08 138.66 264.19 140.61 264.33 142.5 264.51 144.37 264.81 146.78 265.15 149.16 265.57 151.52 266.02 153.87 266.55 156.19 267.15 158.48 267.78 160.77 268.49 163.02 269.2 165.07 269.95 167.09 270.75 169.11 271.58 171.1 272.49 173.1 273.43 175.06 274.45 177.03 275.49 178.95 276.59 180.9 277.76 182.8 278.96 184.71 280.21 186.58 281.53 188.47 282.9 190.34 284.31 192.19 285.79 194.05 287.31 195.88 288.89 197.72 290.53 199.53 292.22 201.37 293.96 203.16 295.78 204.98 297.65 206.8 299.57 208.61 301.57 210.41 303.62 212.23 305.75 214.05 307.95 215.88 310.22 217.71 312.56 219.55 317.48 223.29"/>
  <polygon class="cls-5" points="791.17 233.28 792.01 236.13 792.79 238.97 793.52 241.78 794.19 244.58 794.79 247.38 795.35 250.14 795.86 252.88 796.3 255.61 796.68 258.31 797 261 797.28 263.67 797.5 266.32 797.66 268.96 797.75 271.57 797.8 274.17 797.79 276.73 797.73 279.29 797.6 281.82 797.42 284.34 797.19 286.83 796.88 289.3 796.53 291.75 796.11 294.19 795.66 296.58 795.13 298.98 794.55 301.34 793.92 303.69 793.24 305.99 792.48 308.3 791.68 310.57 790.83 312.82 789.9 315.04 789.01 317.09 788.07 319.11 787.07 321.12 786.03 323.09 784.94 325.07 783.8 326.99 782.6 328.92 781.38 330.81 780.09 332.68 778.77 334.53 777.39 336.36 775.97 338.16 774.5 339.94 772.99 341.7 771.43 343.43 769.83 345.14 768.18 346.83 766.49 348.48 764.74 350.13 762.95 351.73 761.11 353.33 759.24 354.87 757.32 356.42 755.35 357.93 753.36 359.4 751.3 360.85 749.21 362.29 747.09 363.68 744.91 365.05 742.69 366.39 740.44 367.72 738.15 368.99 735.81 370.26 733.43 371.48 731 372.69 728.54 373.86 726.04 375 723.51 376.11 720.93 377.2 718.32 378.23 715.68 379.25 713.01 380.23 710.31 381.18 707.58 382.1 704.8 382.99 702 383.83 699.17 384.65 696.32 385.43 693.43 386.17 690.53 386.9 687.58 387.57 684.64 388.21 681.66 388.82 678.66 389.39 675.63 389.93 672.6 390.42 669.55 390.88 666.48 391.31 663.39 391.69 660.28 392.04 657.18 392.37 654.05 392.64 650.93 392.87 647.78 393.07 644.42 393.29 641.59 393.51 639.03 393.76 636.69 394.05 634.47 394.4 632.36 394.8 630.4 395.24 628.53 395.74 626.73 396.31 625.01 396.96 623.39 397.65 621.85 398.43 620.37 399.27 618.99 400.18 617.67 401.18 616.41 402.23 615.23 403.39 614.11 404.61 613.05 405.92 612.07 407.31 611.16 408.79 610.31 410.33 609.53 411.98 608.8 413.71 607.88 416.22 607.04 418.7 606.31 421.17 605.7 423.63 605.21 425.88 604.81 428.15 604.46 430.47 604.17 432.87 603.97 435.34 603.83 437.92 603.74 440.65 603.7 443.53 603.66 556.06 603.66 593.66 603.63 593.83 603.55 593.99 603.44 594.14 603.32 594.26 603.17 594.35 602.99 594.41 602.83 594.43 602.65 594.41 601.05 594.06 599.47 593.68 597.9 593.26 596.38 592.79 594.85 592.28 593.35 591.72 591.87 591.12 590.4 590.48 590.4 590.48 589.1 589.87 587.79 589.21 586.5 588.5 585.23 587.78 583.95 587.02 582.72 586.22 581.5 585.38 580.29 584.51 579.94 584.18 579.7 583.78 579.58 583.35 579.56 582.87 579.61 581.93 579.61 580.91 579.54 579.8 579.38 578.31 579.23 576.68 579.18 575.52 579.12 559.22 579 536.94 578.85 511.94 578.81 493.63 578.85 477.08 579 461.95 579.23 447.26 579.59 433.33 580.05 420.01 580.63 407.21 580.9 402.66 581.25 398.43 581.68 394.45 582.19 390.69 582.79 387.12 583.5 383.68 584.3 380.41 585.19 377.27 586.19 374.24 587.31 371.31 587.9 369.91 588.53 368.53 589.17 367.17 589.86 365.85 590.57 364.56 591.31 363.28 592.07 362.03 592.87 360.81 593.69 359.61 594.54 358.45 595.42 357.31 596.32 356.2 597.31 355.06 598.34 353.95 599.38 352.86 600.47 351.79 601.57 350.77 602.74 349.75 603.92 348.79 605.13 347.83 607.33 346.17 609.62 344.54 612 342.87 614.47 341.2 617.03 339.53 619.7 337.82 622.5 336.09 625.41 334.33 631.45 330.82 638.19 327.05 645.82 322.9 656.39 317.29 669.29 310.43 674.2 307.76 678.66 305.28 682.97 302.85 687.02 300.51 690.85 298.22 694.5 295.97 698.12 293.68 701.55 291.43 704.86 289.17 708.04 286.92 711.05 284.69 713.98 282.45 716.77 280.22 719.44 277.97 722.11 275.6 724.66 273.24 727.09 270.86 729.41 268.47 731.65 266.03 733.76 263.58 735.75 261.11 737.66 258.6 739.46 256.06 741.17 253.5 742.75 250.9 744.24 248.29 745.64 245.63 746.93 242.94 748.12 240.2 749.21 237.44 750.09 235.06 750.87 232.63 751.58 230.18 752.23 227.69 752.79 225.2 753.3 222.66 753.72 220.09 754.08 217.5 754.37 214.88 754.59 212.21 754.74 209.52 754.81 206.8 754.81 204.05 754.74 201.26 754.61 198.44 754.39 195.59 754.12 192.65 753.79 189.72 753.43 186.78 753.01 183.87 753.01 183.87 752.56 181.04 752.07 178.22 751.54 175.41 750.96 172.59 750.34 169.8 749.67 167 748.96 164.2 748.22 161.42 747.42 158.66 746.58 155.88 745.69 153.12 744.76 150.36 743.8 147.62 742.78 144.87 741.73 142.13 740.62 139.41 740.59 139.26 740.6 139.1 740.66 138.99 740.75 138.88 740.86 138.81 740.97 138.77 741.11 138.77 741.24 138.79 741.35 138.86 741.44 138.95 745.85 145.06 750.09 151.12 754.17 157.17 758.04 163.17 761.77 169.14 765.31 175.12 768.67 181.04 771.87 186.94 774.88 192.83 777.73 198.68 779.09 201.6 780.4 204.51 781.67 207.42 782.91 210.32 784.09 213.21 785.23 216.08 786.34 218.99 787.4 221.86 788.39 224.71 789.36 227.58 790.28 230.43 791.17 233.28"/>
  <polygon class="cls-5" points="370.89 543.71 370.9 547.38 370.98 553.21 371.1 563.29 371.09 570.94 371.01 574.41 370.9 577.64 370.76 580.64 370.58 583.44 370.49 583.89 370.29 584.31 370.01 584.69 369.67 584.98 367.23 586.52 364.76 587.96 362.24 589.27 359.66 590.47 359.66 590.47 356.83 591.65 353.96 592.68 351.01 593.59 348.02 594.37 347.89 594.39 347.65 594.41 347.42 594.35 347.2 594.26 347 594.12 346.84 593.94 346.71 593.74 346.64 593.5 346.62 593.26 346.64 516.48 346.56 439.47 346.55 437.69 346.45 435.87 346.33 434.03 346.16 432.2 345.95 430.37 345.67 428.55 345.36 426.73 345 424.93 344.6 423.19 344.17 421.48 343.69 419.79 343.17 418.16 342.6 416.56 342 415.02 341.37 413.51 340.71 412.06 340.01 410.68 339.3 409.37 338.53 408.1 337.74 406.88 336.92 405.73 336.06 404.61 335.19 403.57 334.27 402.57 333.34 401.65 332.38 400.78 331.38 399.98 330.34 399.21 329.31 398.52 328.24 397.89 327.13 397.32 326 396.8 324.75 396.31 323.44 395.89 322.13 395.54 320.77 395.27 316.19 394.54 310.89 393.85 304.73 393.15 295.98 392.26 284.17 391.04 279.72 390.51 275.7 390 271.93 389.44 268.44 388.88 265.2 388.28 262.21 387.64 257.68 386.57 253.18 385.39 248.77 384.14 244.39 382.79 240.07 381.38 235.83 379.85 231.67 378.27 227.59 376.58 223.61 374.84 219.7 373 215.91 371.11 212.18 369.13 208.57 367.08 205.06 364.96 201.65 362.78 198.34 360.52 195.16 358.2 192.08 355.84 189.11 353.38 186.26 350.9 183.5 348.32 180.87 345.7 178.34 343.01 175.93 340.27 173.64 337.47 171.46 334.6 169.39 331.7 167.44 328.74 165.63 325.72 163.92 322.63 162.3 319.51 160.83 316.31 159.61 313.44 158.51 310.55 157.76 308.45 157.07 306.3 156.42 304.16 155.82 302 155.27 299.78 154.77 297.58 154.31 295.33 153.91 293.08 153.57 290.81 153.26 288.5 153 286.19 152.8 283.85 152.64 281.49 152.55 279.11 152.48 276.71 152.48 274.3 152.51 271.84 152.6 269.39 152.75 266.92 152.93 264.43 153.17 261.89 153.46 259.37 153.8 256.8 154.18 254.24 154.62 251.66 155.11 249.03 155.64 246.41 156.22 243.76 156.85 241.11 157.53 238.42 158.25 235.73 159.03 233.01 159.87 230.27 160.74 227.49 161.67 224.73 162.65 221.93 163.68 219.11 164.76 216.28 165.88 213.45 167.04 210.58 168.28 207.72 169.53 204.84 170.86 201.93 172.22 199.01 173.64 196.08 175.09 193.16 176.6 190.2 178.16 187.23 181.41 181.29 184.85 175.28 188.46 169.29 192.24 163.24 196.2 157.21 200.3 151.18 204.57 145.17 208.95 139.21 209.08 139.08 209.24 139.01 209.39 138.99 209.53 139.03 209.66 139.08 209.77 139.17 209.86 139.3 209.89 139.44 209.89 139.59 209.86 139.73 208.68 142.57 207.55 145.42 206.46 148.29 205.43 151.16 205.43 151.16 203.92 155.61 202.54 160.1 201.27 164.62 200.09 169.2 199.03 173.79 198.09 178.42 197.25 183.11 196.53 187.83 196.14 190.85 195.84 193.83 195.6 196.79 195.45 199.7 195.38 202.6 195.4 205.45 195.49 208.29 195.65 211.08 195.89 213.86 196.22 216.61 196.63 219.33 197.11 222.02 197.67 224.69 198.32 227.32 199.03 229.92 199.83 232.5 200.94 235.68 202.17 238.8 203.52 241.91 205.01 244.98 206.59 247.99 208.31 250.97 210.17 253.93 212.15 256.84 214.25 259.73 216.47 262.58 218.83 265.4 221.32 268.19 223.94 270.95 226.68 273.7 229.57 276.4 232.58 279.09 235.65 281.71 238.85 284.27 242.19 286.85 245.66 289.41 249.31 291.97 253.09 294.53 257.05 297.11 261.19 299.69 265.39 302.23 269.8 304.81 274.43 307.45 279.36 310.17 284.48 312.93 290.05 315.86 296.21 319.05 304.08 323.07 304.79 323.43 312.74 327.5 318.54 330.55 323.69 333.4 328.34 336.11 330.58 337.49 332.74 338.85 334.79 340.2 336.77 341.56 338.68 342.92 340.51 344.28 342.28 345.63 343.97 347.01 345.66 348.44 347.27 349.88 348.82 351.33 350.31 352.8 351.72 354.29 353.07 355.78 354.37 357.33 355.61 358.85 356.77 360.41 357.88 361.99 358.93 363.59 359.91 365.21 360.84 366.84 361.73 368.52 362.53 370.2 363.29 371.93 363.86 373.33 364.4 374.76 364.89 376.2 365.35 377.65 365.94 379.8 366.53 382.05 367.05 384.39 367.56 386.81 368.02 389.33 368.45 391.95 368.83 394.65 369.18 397.47 369.5 400.36 369.78 403.35 370.01 406.42 370.21 409.6 370.4 412.87 370.52 416.23 370.61 419.68 370.67 423.23 370.9 453.34 371.03 483.46 371.01 513.59 370.89 543.71"/>
  <polygon class="cls-5" points="503.23 162.4 503.2 162.91 503.1 163.42 502.92 163.95 502.69 164.44 502.4 164.95 502.01 165.44 501.6 165.93 501.09 166.4 500.53 166.87 499.91 167.34 499.24 167.78 498.49 168.22 497.71 168.63 496.86 169.03 495 169.8 492.95 170.49 490.73 171.1 488.37 171.63 485.88 172.07 483.29 172.41 480.62 172.67 477.89 172.81 475.13 172.87 472.37 172.81 469.65 172.67 466.98 172.41 464.38 172.07 461.89 171.63 459.53 171.1 457.31 170.49 455.26 169.8 453.41 169.03 452.55 168.63 451.77 168.22 451.03 167.78 450.35 167.34 449.74 166.87 449.17 166.4 448.67 165.93 448.25 165.44 447.87 164.95 447.58 164.44 447.34 163.95 447.16 163.42 447.07 162.91 447.03 162.4 447.03 162.4 447.07 161.9 447.16 161.39 447.34 160.86 447.58 160.37 447.87 159.86 448.25 159.37 448.67 158.88 449.17 158.41 449.74 157.94 450.35 157.46 451.03 157.03 451.77 156.59 452.55 156.17 453.41 155.77 455.26 155.01 457.31 154.32 459.53 153.7 461.89 153.18 464.38 152.74 466.98 152.4 469.65 152.14 472.37 152 475.13 151.94 477.89 152 480.62 152.14 483.29 152.4 485.88 152.74 488.37 153.18 490.73 153.7 492.95 154.32 495 155.01 496.86 155.77 497.71 156.17 498.49 156.59 499.24 157.03 499.91 157.46 500.53 157.94 501.09 158.41 501.6 158.88 502.01 159.37 502.4 159.86 502.69 160.37 502.92 160.86 503.1 161.39 503.2 161.9 503.23 162.4"/>
  <polygon class="cls-5" points="149.03 332.5 150.9 336.44 152.88 340.29 154.97 344.05 157.16 347.74 159.47 351.31 161.89 354.82 164.39 358.2 167.01 361.49 169.73 364.68 172.57 367.75 175.47 370.73 178.49 373.6 181.58 376.34 184.77 379 188.04 381.5 191.42 383.92 194.15 385.74 196.91 387.48 199.74 389.17 202.63 390.75 205.55 392.27 208.51 393.71 211.53 395.07 214.58 396.34 217.67 397.54 220.81 398.65 223.97 399.69 227.19 400.63 230.44 401.5 233.73 402.28 237.03 402.99 240.39 403.61 248.35 405.01 255.9 406.39 263.06 407.75 269.84 409.13 276.19 410.48 282.19 411.82 287.77 413.15 292.96 414.47 294.78 414.98 296.5 415.51 298.17 416.07 299.79 416.67 301.33 417.3 302.81 417.98 304.24 418.67 305.6 419.41 306.91 420.17 308.15 420.97 309.34 421.83 310.47 422.7 311.56 423.63 312.58 424.59 313.56 425.59 314.49 426.62 315.74 428.22 316.92 429.95 317.97 431.75 318.94 433.65 319.79 435.67 320.57 437.81 321.26 440.1 321.88 442.52 322.39 445.01 322.82 447.64 323.2 450.49 323.53 453.6 323.8 456.89 324.04 460.55 324.24 464.75 324.48 470.69 324.49 471.04 324.6 474.49 324.68 478.16 324.71 482.01 324.71 486.15 324.58 495.23 324.29 507.95 323.93 523.17 323.86 529.02 323.82 534.39 323.86 539.61 323.93 544.55 324.08 549.27 324.28 553.79 324.53 558.3 324.86 562.66 325.26 566.85 325.71 570.94 326.24 574.9 326.84 578.75 327.51 582.47 328.24 586.11 329.09 589.76 330 593.32 331 596.75 332.07 600.11 333.21 603.36 334.45 606.54 335.76 609.61 337.15 612.59 338.64 615.5 340.21 618.29 341.84 621.02 343.57 623.65 345.38 626.21 347.29 628.68 349.27 631.08 351.36 633.39 352.61 634.7 353.9 635.99 355.21 637.26 356.57 638.49 357.95 639.69 359.35 640.87 360.79 642.02 362.26 643.14 363.77 644.23 365.31 645.32 366.87 646.36 368.47 647.38 370.09 648.36 371.76 649.32 373.43 650.25 375.15 651.15 378.04 652.59 381.04 654.01 384.11 655.37 387.25 656.68 390.48 657.95 393.81 659.18 397.21 660.35 400.66 661.47 404.2 662.56 407.81 663.6 411.46 664.56 415.19 665.5 418.97 666.36 422.8 667.19 426.65 667.94 430.56 668.65 434.52 669.3 438.53 669.9 442.54 670.43 446.58 670.9 450.63 671.3 454.66 671.64 458.71 671.93 462.74 672.15 466.74 672.3 470.72 672.39 474.68 672.41 478.6 672.37 482.47 672.26 486.28 672.1 490.03 671.86 493.71 671.57 499.2 671.04 504.45 670.48 509.52 669.86 514.4 669.19 519.14 668.48 523.72 667.72 528.17 666.9 532.49 666.01 536.71 665.09 540.81 664.09 544.79 663.03 548.66 661.91 552.42 660.74 556.09 659.49 559.63 658.2 563.08 656.84 566.46 655.39 569.73 653.88 572.89 652.32 575.96 650.68 578.92 648.97 581.81 647.21 584.57 645.36 587.24 643.47 589.82 641.49 592.31 639.46 594.69 637.33 597 635.15 599.19 632.92 601.28 630.59 603.3 628.19 605.21 625.74 606.77 623.58 608.26 621.36 609.67 619.11 611.04 616.79 612.33 614.43 613.54 611.99 614.69 609.52 615.78 606.98 616.78 604.42 617.72 601.78 618.59 599.09 619.41 596.35 620.16 593.55 620.81 590.7 621.43 587.81 621.95 584.85 622.61 580.73 623.21 576.57 623.73 572.32 624.23 568.03 624.64 563.64 625.01 559.17 625.31 554.59 625.57 549.89 625.75 545.22 625.91 540.39 626 535.36 626.06 530.07 626.08 524.64 626.04 518.72 625.84 503.26 625.66 489.42 625.62 479.3 625.71 470.13 625.81 465.82 625.93 461.7 626.1 458.27 626.3 455.12 626.57 452.16 626.91 449.4 627.33 446.77 627.82 444.28 628.38 441.92 629.02 439.65 629.75 437.49 630.56 435.43 631.45 433.47 632.43 431.62 633.51 429.84 634.67 428.17 635.92 426.59 637.25 425.1 638.47 423.92 639.72 422.79 641.06 421.72 642.46 420.72 643.92 419.79 645.46 418.9 647.06 418.09 648.75 417.32 650.8 416.47 652.94 415.65 655.16 414.87 657.45 414.11 659.85 413.36 662.32 412.65 664.88 411.96 667.57 411.29 670.25 410.66 673.09 410.04 679.21 408.82 686.06 407.61 695.43 406.04 704.26 404.59 710.56 403.46 714.14 402.76 717.66 401.96 721.13 401.08 724.53 400.14 727.89 399.1 731.18 398 734.41 396.8 737.59 395.53 740.71 394.18 743.78 392.76 746.78 391.26 749.72 389.68 752.63 388.01 755.46 386.28 758.26 384.45 760.97 382.56 763.04 381.03 765.07 379.45 767.09 377.83 769.05 376.16 770.99 374.46 772.88 372.69 774.75 370.88 776.59 369.02 778.39 367.12 780.15 365.17 781.89 363.18 783.58 361.12 785.25 359.03 786.87 356.89 788.47 354.69 790.03 352.46 791.56 350.17 793.04 347.84 794.52 345.46 795.93 343.05 797.33 340.56 798.68 338.04 800.02 335.46 801.31 332.84 802.56 330.17 803.78 327.46 804.98 324.7 806.12 321.91 807.25 319.04 808.34 316.13 809.39 313.17 810.41 310.17 810.48 309.99 810.61 309.83 810.77 309.7 810.95 309.61 811.15 309.55 811.37 309.54 811.57 309.59 811.77 309.66 811.94 309.79 812.08 309.99 812.21 310.24 812.28 310.57 812.32 310.95 812.74 322.07 812.97 331.08 813.06 339.22 813.04 343.01 812.99 346.7 812.9 350.33 812.77 353.89 812.59 357.33 812.37 360.69 812.1 363.97 811.81 367.19 811.46 370.33 811.06 373.44 810.61 376.56 810.12 379.63 809.57 382.63 808.98 385.59 808.34 388.51 807.65 391.4 806.9 394.24 806.11 397.02 805.27 399.78 804.36 402.48 803.42 405.17 802.42 407.8 801.35 410.44 800.24 413 799.08 415.56 797.86 418.09 796.48 420.76 795.04 423.39 793.52 425.99 791.94 428.53 790.28 431.02 788.56 433.47 786.8 435.85 784.94 438.18 783.05 440.46 781.09 442.68 779.06 444.84 776.99 446.93 774.86 448.97 772.68 450.93 770.47 452.82 768.18 454.65 765.85 456.39 763.49 458.08 761.09 459.68 758.64 461.23 756.15 462.68 753.63 464.06 751.07 465.35 748.49 466.59 745.85 467.71 743.2 468.78 740.53 469.75 737.83 470.65 735.12 471.45 732.38 472.18 729.61 472.82 726.84 473.38 723.35 473.96 719.82 474.4 716.28 474.7 712.74 474.89 709.18 474.92 705.62 474.83 702.04 474.6 698.46 474.23 695.7 473.94 692.07 473.63 688.09 473.29 684.82 472.96 684.73 472.94 682.99 472.8 681.24 472.76 679.57 472.83 677.92 473.03 676.32 473.32 674.74 473.74 673.25 474.27 671.76 474.9 670.89 475.34 670.05 475.81 669.22 476.34 668.4 476.9 667.62 477.5 666.86 478.14 666.11 478.81 665.4 479.52 664.71 480.26 664.06 481.04 663.41 481.86 662.81 482.72 662.22 483.59 661.68 484.5 661.15 485.44 660.66 486.42 660.19 487.42 659.77 488.46 659.37 489.49 659.01 490.56 658.68 491.65 658.39 492.76 658.14 493.89 657.92 495.03 657.74 496.17 657.61 497.34 657.5 498.52 657.43 499.7 657.39 500.86 657.39 502.04 657.45 503.22 657.52 504.4 657.99 510.43 658.45 516.48 658.85 522.51 659.21 528.56 659.45 533.59 659.57 538.59 659.59 543.55 659.52 548.45 659.34 553.34 659.05 558.17 658.65 562.93 658.16 567.63 657.56 572.28 656.85 576.88 656.05 581.4 655.14 585.85 654.14 590.23 653.03 594.54 651.83 598.77 650.53 602.91 649.13 606.98 647.64 610.96 646.04 614.86 644.35 618.66 642.57 622.4 640.68 626.05 638.7 629.61 636.63 633.06 634.47 636.44 632.22 639.73 629.87 642.93 627.44 646.03 624.9 649.05 622.28 651.95 619.57 654.79 616.76 657.51 614.8 659.33 612.78 661.11 610.73 662.83 608.64 664.52 606.5 666.14 604.32 667.74 602.12 669.28 599.85 670.79 596.16 673.11 592.4 675.35 588.53 677.49 584.59 679.56 580.58 681.54 576.47 683.43 572.29 685.25 568.02 686.97 563.68 688.61 559.25 690.15 554.75 691.61 550.17 692.97 545.52 694.26 540.81 695.44 536.02 696.53 531.15 697.55 526.21 698.45 521.21 699.29 516.13 700.02 511.01 700.67 505.81 701.22 500.58 701.67 495.28 702.03 489.94 702.29 484.54 702.47 479.11 702.54 473.64 702.52 468.14 702.41 462.62 702.21 457.08 701.91 451.52 701.52 445.94 701.03 440.69 700.49 435.51 699.85 430.43 699.14 425.4 698.36 420.49 697.49 415.64 696.53 410.88 695.49 406.2 694.37 401.62 693.17 397.12 691.9 392.72 690.53 388.38 689.1 384.16 687.57 380 685.98 375.95 684.29 371.99 682.52 368.12 680.69 364.35 678.76 360.66 676.77 357.04 674.69 353.56 672.53 350.14 670.3 346.82 667.99 343.6 665.59 340.48 663.14 337.43 660.58 334.48 657.97 331.63 655.26 328.89 652.5 326.22 649.63 323.66 646.7 321.19 643.69 319.44 641.45 317.75 639.18 316.12 636.88 314.54 634.52 313.01 632.12 311.52 629.67 310.09 627.19 308.71 624.69 307.38 622.13 306.09 619.53 304.88 616.9 303.7 614.23 302.57 611.52 301.5 608.76 300.48 605.96 299.5 603.13 298.57 600.28 297.7 597.35 296.9 594.41 296.12 591.43 295.41 588.41 294.76 585.34 294.14 582.24 293.58 579.1 293.07 575.92 292.62 572.7 292.22 569.45 291.85 566.16 291.56 562.84 291.31 559.46 291.11 556.06 290.96 552.61 290.76 545.67 290.69 539.13 290.71 532.96 290.83 527.18 291.07 521.79 291.4 516.77 291.85 512.14 292.11 509.96 292.4 507.89 292.56 506.64 292.69 505.35 292.76 504.06 292.8 502.75 292.8 501.44 292.74 500.12 292.65 498.79 292.52 497.48 292.36 496.19 292.14 494.89 291.89 493.61 291.58 492.36 291.25 491.14 290.87 489.94 290.47 488.76 290.02 487.62 289.55 486.53 289.04 485.46 288.49 484.44 287.91 483.44 287.31 482.5 286.68 481.59 286 480.74 285.31 479.9 284.59 479.14 283.84 478.39 283.06 477.7 282.24 477.07 281.43 476.47 280.57 475.92 279.7 475.41 278.79 474.96 277.74 474.49 276.65 474.09 275.54 473.76 274.38 473.49 273.22 473.27 272.02 473.12 270.8 473.05 269.55 473.03 266.8 473.12 263.73 473.31 260.32 473.6 255.67 474.07 250.93 474.54 247.57 474.81 244.66 474.96 242.14 475 239.07 474.92 236.03 474.76 233 474.52 230 474.2 227.01 473.78 224.06 473.27 221.12 472.69 218.21 472.02 215.34 471.27 212.51 470.44 209.69 469.51 206.92 468.51 204.17 467.42 201.47 466.26 198.8 465 196.16 463.68 193.95 462.48 191.77 461.24 189.64 459.94 187.53 458.57 185.45 457.16 183.41 455.69 181.41 454.16 179.45 452.58 177.53 450.95 175.64 449.27 173.78 447.53 171.97 445.75 170.2 443.92 168.48 442.05 166.79 440.12 165.16 438.14 163.56 436.12 162.01 434.05 160.51 431.95 159.05 429.8 157.65 427.62 156.31 425.39 155 423.12 153.75 420.81 152.53 418.49 151.39 416.11 150.28 413.71 149.24 411.26 148.24 408.79 147.3 406.26 146.41 403.74 145.57 401.18 144.68 398.27 143.87 395.34 143.09 392.44 142.36 389.51 141.52 385.77 140.76 381.99 140.07 378.18 139.47 374.33 138.94 370.4 138.49 366.41 138.11 362.3 137.8 358.11 137.56 353.97 137.4 349.62 137.29 345.1 137.24 340.31 137.24 335.35 137.29 329.86 137.58 315.18 137.64 312.91 137.71 311.33 137.87 310.19 137.98 309.77 138.11 309.48 138.25 309.28 138.42 309.19 138.42 309.19 138.6 309.23 138.8 309.35 139.04 309.59 139.27 309.94 139.82 310.97 140.43 312.42 142.21 316.87 144.25 321.69 146.52 326.9 149.03 332.5"/>
  <polygon class="cls-3" points="707.51 805.21 706.09 804.81 704.71 804.39 703.37 803.9 702.06 803.37 700.77 802.79 699.53 802.15 698.32 801.48 697.15 800.77 696.03 800.01 694.94 799.21 693.89 798.38 692.89 797.49 691.92 796.56 691.02 795.6 690.13 794.58 689.31 793.53 688.56 792.51 687.87 791.46 687.22 790.35 686.62 789.24 686.06 788.08 685.55 786.91 685.09 785.72 684.68 784.52 684.31 783.26 684 782.01 683.75 780.74 683.53 779.45 683.39 778.14 683.28 776.83 683.22 775.53 683.22 774.2 683.26 772.87 683.37 771.55 683.51 770.2 683.71 768.88 683.97 767.55 684.28 766.24 684.64 764.92 685.04 763.61 685.49 762.32 686 761.03 686.55 759.78 687.15 758.54 687.78 757.31 688.49 756.09 689.22 754.89 690 753.73 691.02 752.33 692.05 750.97 693.16 749.64 694.28 748.37 695.87 746.75 697.52 745.19 699.23 743.72 701.02 742.3 702.9 740.98 704.84 739.72 706.84 738.54 708.91 737.45 711.05 736.44 713.25 735.51 715.52 734.66 717.81 733.89 720.19 733.22 722.59 732.62 725.06 732.11 727.54 731.69 730.12 731.37 732.7 731.13 735.34 730.99 737.97 730.91 740.64 730.95 743.31 731.08 746 731.3 748.69 731.6 751.38 732 754.06 732.49 756.72 733.08 759.33 733.73 761.93 734.47 764.49 735.31 767.02 736.22 769.5 737.22 769.79 737.4 769.99 737.62 769.99 737.62 770.07 737.91 770.05 738.23 769.65 740.16 769.14 741.96 768.54 743.59 767.87 745.12 767.49 745.83 767.09 746.5 766.65 747.15 766.2 747.77 765.73 748.35 765.24 748.91 764.71 749.42 764.16 749.91 763.35 750.57 762.49 751.15 761.58 751.66 760.62 752.13 759.6 752.55 758.51 752.91 757.39 753.22 756.19 753.47 754.95 753.67 753.65 753.84 752.25 753.95 750.76 754.02 749.21 754.06 747.47 754.04 742.87 753.91 738.97 753.8 736.14 753.78 733.61 753.87 731.38 754.07 729.45 754.31 727.69 754.58 726.04 754.89 724.51 755.24 723.06 755.62 721.71 756.04 720.46 756.49 719.32 757 718.24 757.52 717.3 758.11 716.45 758.72 715.7 759.36 715.05 760.05 714.5 760.78 714.03 761.54 713.68 762.34 713.48 763.03 713.34 763.74 713.27 764.48 713.27 765.26 713.34 766.03 713.47 766.84 713.68 767.68 713.96 768.55 714.3 769.4 714.7 770.26 715.17 771.11 715.7 771.97 716.32 772.82 716.99 773.69 717.74 774.56 718.55 775.42 719.42 776.29 720.37 777.16 721.39 778.01 722.46 778.9 723.6 779.76 724.8 780.65 727.4 782.37 730.31 784.12 733.45 785.86 736.81 787.57 740.37 789.22 744.11 790.82 747.92 792.33 751.76 793.71 755.41 794.89 757.1 795.47 758.75 796.18 760.02 796.85 761.26 797.58 762.46 798.41 763.6 799.28 764.71 800.27 765.76 801.3 766.78 802.43 767.74 803.61 768.67 804.86 769.52 806.19 770.34 807.57 771.08 809 771.77 810.51 772.41 812.07 772.97 813.67 773.48 815.31 773.94 817.03 774.32 818.78 774.63 820.56 774.86 822.35 775.03 824.15 775.12 825.97 775.14 827.78 775.08 829.56 774.95 831.34 774.74 833.09 774.46 834.8 774.12 836.49 773.7 838.12 773.21 839.7 772.65 841.21 772.03 842.66 771.17 844.42 770.28 846.13 769.32 847.78 768.31 849.38 767.23 850.96 766.11 852.47 764.91 853.92 763.67 855.34 762.06 857.03 760.35 858.65 758.57 860.17 756.7 861.62 754.74 862.99 752.7 864.28 750.59 865.48 748.4 866.6 746.11 867.64 743.77 868.6 741.33 869.45 738.84 870.23 736.28 870.94 733.63 871.54 730.94 872.07 728.2 872.49 725.35 872.83 722.44 873.09 719.46 873.25 716.46 873.3 713.41 873.29 710.34 873.16 707.24 872.94 704.09 872.63 700.93 872.23 697.77 871.74 694.63 871.16 691.51 870.49 688.4 869.73 685.31 868.87 682.3 867.96 679.34 866.97 678.95 866.77 678.81 866.64 678.7 866.47 678.7 866.47 678.63 866.31 678.59 866.13 678.61 865.69 679.06 863.59 679.63 861.62 680.26 859.81 680.64 858.95 681.02 858.14 681.44 857.36 681.88 856.61 682.35 855.89 682.86 855.19 683.37 854.54 683.91 853.94 684.49 853.34 685.09 852.8 686.04 852.03 687.04 851.34 688.11 850.73 689.25 850.16 690.43 849.67 691.72 849.24 693.07 848.87 694.5 848.57 695.97 848.33 697.54 848.15 699.21 848 700.99 847.91 702.86 847.87 704.93 847.87 710.49 848.02 716.35 848.18 718.59 848.18 720.61 848.13 722.53 848.04 724.35 847.87 726.07 847.67 727.69 847.4 729.29 847.06 730.81 846.66 732.25 846.19 733.61 845.64 734.92 845.02 736.15 844.35 737.35 843.59 738.46 842.75 739.55 841.83 740.57 840.85 741.53 839.76 742.44 838.59 743.07 837.67 743.62 836.76 744.07 835.83 744.45 834.91 744.75 833.98 744.95 833.05 745.07 832.13 745.11 831.22 745.07 830.33 744.96 829.44 744.76 828.55 744.49 827.68 744.13 826.79 743.71 825.91 743.2 825.02 742.62 824.17 741.95 823.28 741.22 822.41 740.4 821.54 739.51 820.66 738.55 819.81 737.5 818.94 736.39 818.08 735.21 817.25 733.9 816.38 732.54 815.52 731.09 814.65 729.56 813.82 727.98 812.98 726.33 812.16 724.6 811.35 722.84 810.56 720.95 809.77 719.04 809 717.08 808.26 715.1 807.55 713.09 806.86 711.12 806.24 709.23 805.68 707.51 805.21"/>
  <polygon class="cls-3" points="469.39 782.08 469.45 800.01 469.43 818.14 469.32 836.5 469.14 855.09 469.1 856.07 469.01 857.01 468.86 857.94 468.66 858.83 468.43 859.72 468.12 860.55 467.77 861.37 467.38 862.15 466.67 863.3 465.85 864.37 464.9 865.37 463.85 866.29 462.71 867.15 461.44 867.95 460.05 868.65 458.57 869.29 456.97 869.85 455.3 870.34 453.52 870.73 451.66 871.03 449.76 871.25 447.79 871.38 445.81 871.42 443.85 871.34 443.45 871.27 443.29 871.18 443.14 871.07 443.14 871.07 443.05 870.93 442.96 870.76 442.91 870.33 442.91 733.71 442.93 733.44 443.02 733.17 443.14 732.91 443.31 732.69 443.52 732.51 443.76 732.37 444.03 732.26 444.31 732.22 447.83 732.06 450.97 732.06 452.41 732.09 453.81 732.17 455.1 732.29 456.35 732.44 457.53 732.62 458.67 732.84 459.76 733.11 460.8 733.4 461.82 733.75 462.78 734.13 463.72 734.56 464.63 735.02 465.52 735.55 466.39 736.13 467.25 736.76 468.08 737.43 468.92 738.18 469.74 738.98 470.55 739.85 471.39 740.81 472.21 741.81 473.04 742.9 474.82 745.39 476.78 748.41 479.18 752.29 501 788.3 522.69 824.21 522.78 824.33 522.9 824.42 523.07 824.48 523.21 824.5 523.38 824.48 523.52 824.41 523.65 824.32 523.74 824.19 523.81 824.04 523.83 823.88 523.76 786.44 523.76 750.35 523.81 748.88 523.94 747.48 524.18 746.14 524.5 744.85 524.92 743.59 525.41 742.41 526.01 741.29 526.68 740.23 527.52 739.16 528.44 738.16 529.46 737.25 530.57 736.4 531.77 735.64 533.08 734.95 534.44 734.35 535.89 733.84 537.42 733.4 539.02 733.08 540.69 732.82 542.38 732.68 544.12 732.62 545.88 732.68 547.66 732.8 549.44 733.04 549.73 733.11 549.97 733.2 550.19 733.33 550.35 733.49 550.35 733.49 550.48 733.69 550.57 733.91 550.62 734.17 550.64 734.44 550.7 870.78 550.66 871.11 550.51 871.36 550.3 871.56 549.99 871.67 547.55 872.18 545.23 872.52 544.1 872.63 542.98 872.72 541.9 872.76 540.83 872.76 539.78 872.7 538.74 872.63 537.73 872.51 536.74 872.36 535.76 872.16 534.82 871.92 533.86 871.65 532.93 871.33 531.73 870.85 530.57 870.31 529.41 869.69 528.28 869.02 527.17 868.25 526.08 867.44 524.99 866.53 523.94 865.55 522.89 864.5 521.83 863.35 520.8 862.13 519.76 860.83 518.73 859.44 517.67 857.96 516.62 856.36 515.57 854.67 504.43 836.38 493.35 818.1 482.32 799.81 471.35 781.54 470.88 780.83 470.48 780.34 470.15 780.07 470.01 780.03 469.86 780.03 469.86 780.03 469.75 780.08 469.66 780.21 469.5 780.61 469.41 781.23 469.39 782.08"/>
  <polygon class="cls-3" points="338.97 779.54 338.92 797.78 338.88 816.05 338.9 834.38 338.95 852.72 338.9 854.54 338.73 856.27 338.46 857.87 338.08 859.39 337.59 860.81 336.97 862.15 336.26 863.39 335.86 863.97 335.43 864.53 334.67 865.4 333.83 866.2 332.9 866.95 331.92 867.64 330.85 868.27 329.69 868.84 328.45 869.34 327.15 869.8 325.77 870.2 324.29 870.54 322.71 870.83 321.06 871.07 319.28 871.25 317.41 871.4 315.41 871.49 313.23 871.52 312.92 871.49 312.72 871.36 312.72 871.36 312.6 871.16 312.56 870.89 312.58 733.67 312.6 733.35 312.67 733.08 312.78 732.84 312.92 732.64 313.12 732.49 313.36 732.39 313.63 732.31 313.96 732.29 315.72 732.29 320.06 732.33 323.11 732.44 325.78 732.64 326.98 732.78 328.13 732.97 329.27 733.18 330.36 733.44 331.41 733.73 332.41 734.06 333.36 734.42 334.3 734.84 335.21 735.29 336.08 735.8 337.21 736.53 338.28 737.33 339.32 738.23 340.31 739.21 341.28 740.29 342.2 741.45 343.11 742.7 343.98 744.06 368.27 783.99 392.37 823.88 392.47 823.99 392.57 824.08 392.57 824.08 392.7 824.13 392.85 824.15 392.99 824.12 393.12 824.06 393.23 823.97 393.32 823.86 393.37 823.73 393.39 823.59 393.43 789 393.39 754.25 393.41 752.82 393.48 751.44 393.59 750.11 393.74 748.82 393.94 747.59 394.19 746.41 394.48 745.28 394.81 744.19 395.21 743.16 395.63 742.18 396.1 741.23 396.62 740.34 397.19 739.51 397.79 738.71 398.44 737.96 399.13 737.27 399.99 736.54 400.89 735.87 401.87 735.27 402.91 734.73 404 734.26 405.14 733.84 406.36 733.47 407.63 733.2 408.96 732.97 410.34 732.8 411.79 732.71 413.3 732.68 414.86 732.71 416.48 732.8 418.17 732.97 419.91 733.18 420.24 733.29 420.51 733.51 420.69 733.8 420.75 734.15 420.08 870.89 420.02 871.25 419.86 871.52 419.86 871.52 419.62 871.72 419.28 871.85 416.86 872.29 414.55 872.58 412.36 872.7 411.28 872.72 410.25 872.7 409.21 872.63 408.21 872.54 407.21 872.41 406.25 872.23 405.31 872.03 404.4 871.78 403.47 871.51 402.58 871.18 401.37 870.67 400.2 870.11 399.04 869.45 397.93 868.74 396.81 867.95 395.72 867.07 394.63 866.15 393.55 865.09 392.48 864 391.41 862.79 390.34 861.5 389.25 860.08 388.16 858.57 387.05 856.96 385.89 855.19 384.69 853.29 373.37 834.83 362.13 816.34 350.98 797.83 339.88 779.29 339.7 779.1 339.46 779.05 339.21 779.12 339.04 779.3 338.97 779.54"/>
  <polygon class="cls-3" points="264.77 866.15 262.55 867.38 260.3 868.55 257.99 869.62 255.67 870.58 253.27 871.47 250.86 872.27 248.4 872.96 245.93 873.58 243.43 874.09 240.9 874.49 238.38 874.79 235.87 875.01 233.35 875.12 230.82 875.14 228.31 875.05 225.82 874.85 223.35 874.56 220.92 874.18 218.52 873.69 216.14 873.1 213.84 872.43 211.55 871.67 209.31 870.82 207.13 869.85 205.03 868.82 202.96 867.67 200.96 866.46 199.03 865.15 197.18 863.77 195.38 862.3 193.67 860.77 192.02 859.14 191 858.05 190 856.9 189.04 855.76 188.12 854.56 187.22 853.34 186.37 852.09 185.55 850.82 184.77 849.51 184.01 848.17 183.3 846.8 182.63 845.42 181.99 843.99 181.39 842.55 180.83 841.08 180.3 839.61 179.81 838.08 179.52 837.05 179.25 835.92 179 834.69 178.76 833.34 178.32 830.38 177.98 827.02 177.71 823.26 177.51 819.1 177.36 814.52 177.31 809.57 177.25 791.02 177.22 772.42 177.23 753.78 177.29 735.11 177.29 735.06 177.33 734.84 177.4 734.64 177.51 734.46 177.65 734.29 177.83 734.17 178.03 734.09 178.25 734.04 178.47 734.04 183.16 734.42 187.79 734.8 189.53 734.98 191.08 735.18 192.55 735.42 193.91 735.69 195.18 735.98 196.36 736.31 197.51 736.69 198.58 737.11 199.6 737.58 200.52 738.09 201.41 738.65 202.21 739.25 202.96 739.91 203.66 740.61 204.15 741.19 204.61 741.79 205.03 742.43 205.43 743.1 205.79 743.81 206.12 744.56 206.41 745.32 206.68 746.12 206.92 746.95 207.11 747.84 207.28 748.73 207.42 749.68 207.61 751.68 207.66 753.82 207.66 769.02 207.73 784.24 207.88 799.43 208.11 814.63 208.2 817.96 208.35 821.03 208.57 823.82 208.84 826.37 209.15 828.64 209.53 830.65 209.99 832.4 210.48 833.89 210.84 834.76 211.24 835.61 211.67 836.47 212.16 837.3 212.67 838.14 213.24 838.96 213.82 839.77 214.45 840.55 215.11 841.32 215.78 842.06 216.51 842.77 217.23 843.46 218 844.13 218.79 844.77 219.59 845.35 220.41 845.91 221.23 846.44 222.06 846.91 222.9 847.37 223.75 847.76 224.61 848.13 225.48 848.46 226.35 848.75 227.22 849 228.09 849.2 228.99 849.36 229.84 849.49 230.71 849.56 231.56 849.62 232.44 849.6 233.27 849.56 234.13 849.47 235.85 849.18 237.56 848.75 238.52 848.44 239.48 848.09 240.41 847.69 241.34 847.24 242.25 846.75 243.14 846.22 244.03 845.64 244.88 845.02 245.71 844.35 246.51 843.66 247.31 842.92 248.08 842.13 248.82 841.32 249.53 840.46 250.22 839.57 250.87 838.67 251.51 837.7 252.11 836.7 252.67 835.69 253.22 834.63 253.73 833.56 254.18 832.45 254.62 831.34 255 830.22 255.36 829.07 255.67 827.91 255.94 826.75 256.16 825.59 256.36 824.41 256.5 823.23 256.61 822.06 256.67 820.88 256.98 810.8 257.21 801.68 257.39 793.53 257.48 786.35 257.5 780.12 257.45 774.89 257.32 770.6 257.12 767.3 256.92 764.59 256.79 762.03 256.72 759.67 256.72 757.43 256.79 755.33 256.92 753.37 257.14 751.51 257.41 749.77 257.76 748.13 258.18 746.59 258.67 745.15 259.25 743.81 259.88 742.56 260.61 741.38 261.39 740.29 262.28 739.29 263.17 738.42 264.15 737.62 265.22 736.87 266.37 736.18 267.58 735.58 268.89 735.04 270.29 734.55 271.76 734.13 273.34 733.77 275.01 733.46 276.78 733.22 278.63 733.04 280.59 732.93 282.66 732.86 284.86 732.86 287.15 732.91 287.57 732.98 287.73 733.08 287.87 733.18 287.87 733.18 287.98 733.31 288.06 733.49 288.11 733.91 288.04 775.53 288.06 817.09 288.02 820.14 287.93 823.04 287.77 825.8 287.53 828.47 287.24 831.02 286.86 833.47 286.42 835.81 285.91 838.07 285.31 840.25 284.66 842.33 283.91 844.37 283.1 846.31 282.19 848.2 281.23 850.02 280.17 851.76 279.01 853.45 277.63 855.29 276.14 857.05 274.54 858.72 272.82 860.34 270.98 861.88 269.04 863.37 266.97 864.79 264.77 866.15"/>
  <polygon class="cls-3" points="608.2 847.24 660.88 847.24 661.32 847.29 661.48 847.38 661.61 847.49 661.61 847.49 661.72 847.64 661.77 847.8 661.81 848.02 661.79 848.26 661.63 849.58 661.43 850.85 661.19 852.09 660.92 853.29 660.61 854.43 660.28 855.52 659.92 856.59 659.52 857.61 659.08 858.59 658.63 859.54 658.12 860.43 657.57 861.3 657.01 862.12 656.41 862.9 655.76 863.64 655.09 864.35 654.03 865.33 652.92 866.2 651.73 867.02 650.44 867.76 649.06 868.44 647.58 869.04 646.04 869.58 644.39 870.05 642.64 870.45 640.81 870.8 638.83 871.09 636.74 871.33 634.49 871.51 632.07 871.63 629.44 871.71 626.5 871.74 601.92 871.78 577.31 871.72 576.92 871.67 576.76 871.6 576.63 871.51 576.63 871.51 576.54 871.38 576.47 871.22 576.42 870.83 576.42 734.15 576.47 733.75 576.54 733.58 576.65 733.46 576.78 733.35 576.94 733.28 577.34 733.22 659.94 733.28 660.15 733.29 660.37 733.37 660.57 733.47 660.74 733.62 660.86 733.8 660.95 734 661.01 734.22 661.03 734.44 661.01 734.53 660.66 736.38 660.21 738.2 659.68 739.98 659.05 741.72 658.32 743.39 657.5 744.99 656.61 746.52 655.63 747.99 654.58 749.35 653.47 750.62 652.27 751.8 651.02 752.87 649.73 753.86 648.35 754.73 646.93 755.49 645.46 756.16 644.46 756.53 643.44 756.85 642.43 757.13 641.37 757.36 640.3 757.52 639.23 757.65 638.14 757.74 637.03 757.76 608.22 757.78 607.8 757.85 607.64 757.92 607.51 758.03 607.42 758.16 607.35 758.31 607.3 758.71 607.3 785.48 607.35 785.88 607.42 786.02 607.53 786.17 607.66 786.26 607.8 786.33 608.2 786.39 648.57 786.39 648.87 786.42 649.11 786.57 649.11 786.57 649.26 786.79 649.31 787.1 649.33 788.48 649.31 789.82 649.26 791.13 649.15 792.38 649 793.6 648.82 794.76 648.58 795.91 648.29 796.98 647.97 798.03 647.6 799.03 647.18 799.99 646.75 800.9 646.24 801.79 645.7 802.63 645.11 803.44 644.48 804.19 643.42 805.28 642.24 806.28 640.99 807.17 639.61 807.99 638.12 808.71 636.52 809.35 634.8 809.89 632.94 810.36 631.04 810.75 629 811.04 626.8 811.27 624.46 811.44 622.01 811.51 619.28 811.55 616.25 811.51 612.15 811.42 608.28 811.33 607.84 811.38 607.68 811.45 607.53 811.56 607.53 811.56 607.42 811.69 607.35 811.85 607.3 812.27 607.3 846.33 607.35 846.73 607.42 846.88 607.53 847.02 607.66 847.11 607.8 847.18 608.2 847.24"/>
  <text class="cls-6" transform="translate(174.92 922.58) scale(.98 1)"><tspan x="0" y="0">UNIVERSI</tspan><tspan class="cls-1" x="173.58" y="0">T</tspan><tspan x="193.3" y="0">AS NEGERI SEMARANG</tspan></text>
</svg>