<svg class=" " viewBox="0 0 1600 800"><path d="M30.601,234.343C38.269,246.277,56.533,257.798,72.858,266.667C91.281,276.675,114.437,284.156,136.683,289.409C159.759,294.858,185.626,298.086,209.045,298.242C231.108,298.389,252.895,295.89,273.367,291.259C293.02,286.813,312.692,280.122,329.648,271.552C345.428,263.576,362.693,253.944,372.299,242.424C380.25,232.89,387.12,220,386.675,210.101C386.281,201.333,380.409,192.949,373.168,185.859C363.522,176.412,348.454,168.888,329.648,162.793C300.077,153.21,249.475,146.116,209.045,145.868C168.219,145.618,114.712,153.69,85.867,161.616C69.291,166.171,58.693,170.237,48.241,177.932C38.317,185.239,26.611,195.914,24.121,205.956C21.91,214.867,24.928,225.515,30.601,234.343" stroke="#71717a" stroke-width="2" fill="none" stroke-linecap="round" stroke-miterlimit="4"></path><path d="M4,295.777C4,295.777,121.279,340.307,160.804,349.413C183.925,354.739,198.305,355.992,217.085,356.386C235.826,356.779,253.669,355.727,273.367,351.799C296.225,347.241,320.852,338.841,345.729,328.432C374.217,316.511,409.855,298.535,434.171,282.361C453.415,269.56,471.117,257.221,482.196,242.424C491.497,230.002,499.237,214.143,499.678,202.02C500.029,192.353,496.14,183.589,490.452,175.585C483.564,165.892,471.079,157.335,458.291,150.059C443.043,141.384,423.553,135.082,403.726,129.293C381.157,122.703,359.537,117.654,329.648,113.927C284.975,108.357,215.544,103.708,160.804,106.567C108.474,109.299,8.04,129.329,8.04,129.329" stroke="#71717a" stroke-width="2" fill="none" stroke-linecap="round" stroke-miterlimit="4"></path><path d="M226.622,630.303C231.729,642.481,245.106,656.466,257.286,663.094C268.904,669.416,285.321,672.951,297.487,670.316C309.388,667.739,324.196,658.511,329.648,648.11C335.304,637.32,334.409,618.788,329.611,606.061C324.446,592.363,310.657,576.099,297.487,569.449C284.842,563.064,264.992,560.981,252.742,565.657C241.15,570.081,229.309,583.683,225.126,594.886C221.198,605.404,222.085,619.482,226.622,630.303" stroke="#71717a" stroke-width="2" fill="none" stroke-linecap="round" stroke-miterlimit="4"></path><path d="M795.844,4C795.844,4,792.766,28.773,795.98,38.582C798.837,47.3,804.818,54.662,812.06,60.665C820.328,67.518,832.607,72.595,844.221,75.915C856.605,79.456,871.044,80.845,884.422,80.524C897.845,80.202,912.251,77.961,924.623,73.947C936.252,70.174,947.588,64.886,956.784,57.802C965.72,50.917,974.186,41.673,979.274,32.323C984.008,23.624,987.221,4,987.221,4" stroke="#71717a" stroke-width="2" fill="none" stroke-linecap="round" stroke-miterlimit="4"></path><path d="M1032.072,355.556C1034.471,368.185,1045.697,383.527,1057.335,395.96C1071.346,410.928,1093.084,424.749,1113.357,436.364C1134.473,448.461,1159.073,458.928,1181.91,466.626C1203.363,473.857,1225.366,479.341,1246.231,481.993C1265.481,484.441,1284.645,485.396,1302.513,483.03C1319.389,480.794,1338.183,476.602,1350.754,469.066C1361.154,462.831,1370.703,454.126,1374.746,444.444C1378.667,435.056,1378.26,422.476,1375.351,412.121C1372.186,400.85,1363.315,389.179,1354.799,379.798C1346.163,370.285,1335.998,363.039,1323.754,355.556C1308.786,346.407,1290.318,338.021,1270.352,330.789C1246.612,322.189,1216.227,314.272,1189.95,309.331C1165.371,304.708,1139.338,301.187,1117.588,301.267C1099.716,301.333,1082.769,301.941,1068.775,307.071C1056.491,311.573,1043.121,319,1037.186,327.963C1032.077,335.679,1030.23,345.864,1032.072,355.556" stroke="#71717a" stroke-width="2" fill="none" stroke-linecap="round" stroke-miterlimit="4"></path><path d="M4,344.609C4,344.609,86.009,378.258,115.985,395.96C138.245,409.105,162.026,421.658,170.601,436.364C176.538,446.545,176.576,455.18,174.564,468.687C170.786,494.061,134.739,544.871,127.946,573.737C123.532,592.496,124.538,606.871,125.786,622.222C126.936,636.38,129.503,649.486,134.258,662.626C139.263,676.457,146.905,691.35,155.691,703.03C163.976,714.045,173.745,723.251,184.925,731.304C196.726,739.805,210.742,747.037,225.126,752.224C240.135,757.637,256.568,761.022,273.367,762.626C291.308,764.34,311.745,763.849,329.648,761.39C346.487,759.077,363.705,755.233,377.889,749.019C390.601,743.449,403.034,736.6,411.455,727.273C419.479,718.386,425.117,707.213,427.991,694.949C431.313,680.777,429.529,663.121,427.385,646.465C425.035,628.204,420.032,608.413,413.335,589.899C406.381,570.675,397.932,552.738,385.96,533.333C371.498,509.893,338.82,479.111,330.11,460.606C325.574,450.969,323.999,443.55,324.562,436.364C325.033,430.35,326.668,426.408,331.041,420.202C340.005,407.48,361.211,389.619,385.839,371.717C427.247,341.619,515.927,299.221,564.016,266.667C599.119,242.903,626.997,213.77,651.256,199.312C666.58,190.178,675.002,184.918,691.457,181.48C714.793,176.603,749.848,177.714,779.899,181.967C812.387,186.564,859.845,197.304,879.361,210.101C890.104,217.146,894.185,222.759,899.194,234.343C907.668,253.943,902.088,298.827,910.859,323.232C917.866,342.728,926.81,355.643,941.228,371.717C960.701,393.426,992.744,416.874,1023.149,436.364C1056.305,457.616,1098.295,478.308,1133.668,492.777C1164.244,505.283,1193.033,514.564,1222.111,520.577C1249.262,526.191,1275.728,529.182,1302.513,528.907C1329.329,528.633,1359.025,525.766,1382.915,518.908C1403.745,512.928,1425.085,504.205,1438.765,492.929C1449.78,483.851,1458.486,472.682,1462.21,460.606C1465.957,448.456,1464.524,433.27,1461.028,420.202C1457.304,406.28,1448.914,392.335,1439.293,379.798C1428.726,366.028,1416.117,353.817,1398.995,341.856C1376.107,325.867,1348.052,312.982,1310.553,297.569C1250.261,272.788,1117.521,241.759,1067.491,218.182C1043.184,206.726,1023.11,198.902,1016.516,185.859C1011.684,176.302,1014.917,166.673,1018.765,153.535C1025.87,129.272,1061.961,84.698,1071.778,56.566C1078.598,37.021,1080.865,4,1080.865,4" stroke="#71717a" stroke-width="2" fill="none" stroke-linecap="round" stroke-miterlimit="4"></path><path d="M681.393,4C681.393,4,649.242,55.358,635.176,69.373C626.643,77.875,620.072,81.977,611.055,86.295C601.444,90.897,591.604,93.725,578.894,95.593C561.277,98.182,543.548,97.364,514.573,96.262C453.855,93.951,321.782,73.057,233.166,71.869C153.983,70.807,8.04,85.312,8.04,85.312" stroke="#71717a" stroke-width="2" fill="none" stroke-linecap="round" stroke-miterlimit="4"></path><path d="M576.691,4C576.691,4,541.94,25.095,522.613,31.461C502.571,38.061,487.159,40.086,458.291,42.268C400.065,46.668,273.435,37.211,192.965,38.127C125.764,38.893,8.04,45.228,8.04,45.228" stroke="#71717a" stroke-width="2" fill="none" stroke-linecap="round" stroke-miterlimit="4"></path><path d="M4,394.855C4,394.855,37.511,416.1,48.706,428.283C57.954,438.347,64.976,445.093,68.86,460.606C76.458,490.955,58.479,564.672,59.114,606.061C59.589,636.949,60.678,661.881,67.027,686.869C72.93,710.101,81.341,733.151,94.362,751.515C107.005,769.346,143.347,796,143.347,796" stroke="#71717a" stroke-width="2" fill="none" stroke-linecap="round" stroke-miterlimit="4"></path><path d="M429.323,796C429.323,796,471,776.2,482.412,765.4C489.878,758.335,493.671,751.276,496.74,743.434C499.712,735.841,501.181,730.215,500.854,719.192C500.141,695.095,485.377,643.666,474.372,604.717C462.577,562.976,436.55,509.608,431.484,476.768C428.448,457.081,427.806,442.23,432.324,428.283C436.397,415.709,445.143,406.009,454.877,395.96C466.276,384.191,479.042,374.568,498.192,363.636C528.988,346.057,589.743,320.021,627.136,309.68C654.179,302.201,676.138,298.625,699.497,299.237C721.62,299.817,739.376,301.607,763.819,311.988C803.797,328.966,863.984,384.214,907.849,412.121C943.011,434.492,970.763,450.377,1005.343,468.687C1042.973,488.611,1088.102,511.748,1125.628,526.525C1156.892,538.835,1184.294,547.734,1214.07,554.081C1243.267,560.305,1272.354,563.808,1302.513,564.568C1333.938,565.361,1368.567,563.369,1398.995,558.037C1427.294,553.078,1456.445,545.689,1479.397,534.974C1498.943,525.848,1518.528,513.844,1529.662,501.01C1538.231,491.132,1543.312,479.752,1545.377,468.687C1547.339,458.175,1545.991,448.283,1542.671,436.364C1538.04,419.736,1525.877,396.417,1514.665,379.798C1504.286,364.414,1494.157,352.396,1478.703,339.394C1458.552,322.441,1433.364,307.427,1400.567,290.909C1351.088,265.99,1250.907,238.854,1206.03,213.72C1179.457,198.837,1159.234,186.059,1147.315,169.697C1138.22,157.212,1135.369,146.755,1133.4,129.293C1130.02,99.307,1146.88,4,1146.88,4" stroke="#71717a" stroke-width="2" fill="none" stroke-linecap="round" stroke-miterlimit="4"></path><path d="M4,736.852L30.896,796" stroke="#71717a" stroke-width="2" fill="none" stroke-linecap="round" stroke-miterlimit="4"></path><path d="M565.183,796C565.183,796,575.247,783.117,577.391,775.758C579.563,768.304,579.849,762.828,577.982,751.515C573.133,722.136,534.583,647.569,521.676,597.98C510.127,553.61,499.101,497.266,501.107,468.687C502.127,454.163,505.857,445.911,511.032,436.364C516.034,427.137,522.715,419.584,531.27,412.121C541.558,403.146,556.501,394.308,569.981,387.879C583.125,381.61,595.203,377.175,611.055,373.782C631.561,369.393,659.414,365.65,683.417,367.172C707.658,368.709,723.586,371.944,755.779,383.182C829.123,408.784,1014.939,517.402,1101.508,551.879C1151.13,571.642,1184.658,581.964,1222.111,589.724C1253.525,596.232,1280.394,597.972,1310.553,599.002C1341.977,600.076,1374.979,598.752,1407.035,595.505C1439.302,592.237,1471.953,586.918,1503.518,579.374C1534.935,571.865,1596,550.408,1596,550.408" stroke="#71717a" stroke-width="2" fill="none" stroke-linecap="round" stroke-miterlimit="4"></path><path d="M1206.03,4C1206.03,4,1203.871,87.736,1208.43,113.131C1210.981,127.347,1214.28,135.866,1219.618,145.455C1224.721,154.619,1229.864,161.44,1239.335,169.697C1254.279,182.726,1276.845,195.661,1305.817,210.101C1354.382,234.306,1466.266,267.701,1508.929,290.909C1530.484,302.635,1540.256,310.555,1554.416,323.232C1569.4,336.648,1596,369.872,1596,369.872" stroke="#71717a" stroke-width="2" fill="none" stroke-linecap="round" stroke-miterlimit="4"></path><path d="M1596,789.546L1583.92,795.619" stroke="#71717a" stroke-width="2" fill="none" stroke-linecap="round" stroke-miterlimit="4"></path><path d="M729.114,796C729.114,796,692.132,772.861,675.377,758.451C658.061,743.558,641.622,726.158,627.136,707.705C612.365,688.89,597.849,667.07,587.795,646.465C578.671,627.767,572.25,609.662,567.982,589.899C563.541,569.333,560.935,545.16,562.248,525.253C563.396,507.834,566.106,490.56,573.099,476.768C579.601,463.946,589.879,452.656,601.356,444.444C613.14,436.015,627.002,430.593,643.216,427.26C663.721,423.045,690.476,422.998,715.578,426.111C743.816,429.613,772.652,439.108,804.02,449.889C841.523,462.777,880.513,480.43,924.623,500.794C980.085,526.398,1057.128,572.306,1109.548,593.709C1146.222,608.683,1172.26,617.26,1206.03,624.579C1241.751,632.32,1272.655,635.076,1318.593,637.829C1390.461,642.134,1596,638.523,1596,638.523" stroke="#71717a" stroke-width="2" fill="none" stroke-linecap="round" stroke-miterlimit="4"></path><path d="M1596,230.853C1596,230.853,1480.215,216.267,1439.196,206.762C1411.936,200.446,1392.365,194.064,1372.321,185.859C1354.873,178.716,1338.148,170.632,1325.086,161.616C1314.302,154.173,1305.717,146.723,1298.22,137.374C1290.625,127.902,1284.843,119.414,1279.924,105.051C1271.767,81.234,1265.18,4,1265.18,4" stroke="#71717a" stroke-width="2" fill="none" stroke-linecap="round" stroke-miterlimit="4"></path><path d="M1596,715.066L1452.808,796" stroke="#71717a" stroke-width="2" fill="none" stroke-linecap="round" stroke-miterlimit="4"></path><path d="M632.543,517.172C640.62,504.681,653.846,494.377,667.337,487.857C681.369,481.074,698.277,478.849,715.578,478.063C735.414,477.162,754.883,479.275,779.899,485.133C817.417,493.919,866.015,511.885,916.583,535.117C985.111,566.601,1093.202,641.278,1149.749,665.772C1179.883,678.825,1195.094,681.759,1222.111,688.694C1255.403,697.239,1314.366,700.695,1335.178,711.111C1344.709,715.881,1353.749,721.774,1353.152,727.273C1352.301,735.099,1327.267,746.003,1310.553,751.428C1290.171,758.045,1270.981,757.863,1238.191,759.563C1169.279,763.135,997.939,761.21,916.583,756.877C866.643,754.218,830.676,752.71,795.98,745.013C768.374,738.889,745.34,731.045,723.618,719.535C703.077,708.65,684.079,695.012,668.43,678.788C652.79,662.572,637.996,641.968,629.741,622.222C622.171,604.116,617.97,583.698,618.74,565.657C619.459,548.783,624.041,530.32,632.543,517.172" stroke="#71717a" stroke-width="2" fill="none" stroke-linecap="round" stroke-miterlimit="4"></path><path d="M1596,138.677C1596,138.677,1521.291,152.54,1487.437,150.269C1457.023,148.229,1421.81,138.274,1401.846,129.293C1389.667,123.814,1383.065,118.302,1374.874,110.636C1366.046,102.374,1357.731,93.941,1351.176,80.808C1341.715,61.852,1331.195,4,1331.195,4" stroke="#71717a" stroke-width="2" fill="none" stroke-linecap="round" stroke-miterlimit="4"></path><path d="M707.538,548.661C715.972,541.902,728.133,537.723,739.698,535.245C752.123,532.583,765.966,532.897,779.899,534.16C795.327,535.559,811.858,539.414,828.141,544.335C845.74,549.655,864.253,556.929,881.648,565.657C899.66,574.693,919.323,586.299,934.266,597.98C947.184,608.077,959.921,618.573,967.2,630.303C973.449,640.373,979.874,653.432,977.768,662.626C975.781,671.298,966.199,678.894,956.784,684.423C944.694,691.523,925.933,694.645,908.543,697.132C888.792,699.957,864.875,700.336,844.221,698.838C824.762,697.426,805.196,694.186,787.94,689.097C772.287,684.482,758.019,678.824,744.693,670.707C731.189,662.482,716.952,651.439,707.538,639.912C699.141,629.632,692.25,617.583,689.438,606.061C686.857,595.487,686.7,583.399,689.832,573.737C692.885,564.322,699.622,555.005,707.538,548.661" stroke="#71717a" stroke-width="2" fill="none" stroke-linecap="round" stroke-miterlimit="4"></path><path d="M1596,74.618C1596,74.618,1542.036,79.377,1519.598,77.322C1501.559,75.67,1485.546,73.145,1471.357,66.632C1458.004,60.502,1444.617,51.245,1436.323,40.404C1428.477,30.148,1421.873,4,1421.873,4" stroke="#71717a" stroke-width="2" fill="none" stroke-linecap="round" stroke-miterlimit="4"></path></svg>